<svg xmlns="http://www.w3.org/2000/svg" xmlns:xlink="http://www.w3.org/1999/xlink" version="1.1" x="0px" y="0px" 
viewBox="0 0 64 80" style="enable-background:new 0 0 64 64;" xml:space="preserve"><g>
<ellipse transform="matrix(2.997262e-02 -0.9996 0.9996 2.997262e-02 23.9271 37.0073)" cx="31" cy="6.2" rx="5.5" ry="5.5"/>
<path d="M42.8,49.2c-1.3-0.8-3-0.3-3.8,1.1c-2.6,4.7-7.5,7.6-12.9,7.6c-8.1,0-14.7-6.6-14.7-14.7c0-5.2,2.6-9.9,7-12.6l1.3-0.8v-16   
c0-1.5-1.2-2.8-2.8-2.8s-2.8,1.2-2.8,2.8v12.9C8.9,30.4,5.8,36.5,5.8,43c0,11.2,9.1,20.3,20.3,20.3c7.3,0,14.1-4,17.7-10.4   C44.6,51.6,44.1,49.9,42.8,49.2z"/>
<path d="M57.9,54.4l-7.1-14.9c-0.1-0.6-0.3-1.3-0.6-1.8c-1.1-2-3.1-2.3-5.3-2.5c-0.7-0.1-9.2-1-9.3-1.4c-0.1-1.1-0.2-2.1-0.3-3.2   
L31,28.2l-4.2-5.4c-0.3-0.4-0.5-0.9-0.7-1.3h1.4c0.1,0.2,0.2,0.4,0.3,0.6l4,5.2l8.8,4.8c0.2,0.1,0.4,0.2,0.7,0.2   
c0.6,0,1.1-0.3,1.4-0.8c0.4-0.7,0.2-1.5-0.4-1.9l-6.4-4.7c-0.3-0.2-0.6-0.5-0.8-0.9l-0.4-0.7l-0.3-3c-0.1-0.8-0.3-1.5-0.6-2.2   
c-0.1-0.3-0.2-0.6-0.3-0.9c-0.5-1-1.2-1.8-2-2.5c-1.5-1.2-3.6-1.7-5.4-0.9c-2.2,1-2.5,3.1-2.6,5.3c-0.2,4.1,0.6,8.2,1.6,12.1   
c0.3,1.7,0.7,3.4,1.2,5.1c0.4,1.3,0.7,2.7,1.2,4c0.5,1.3,2.1,1.7,3.9,1.8C32.9,42.2,41.4,42,43,42l0.2,0.3l5.3,7.9l4.6,6.9   
c0.8,1.1,2.3,1.6,3.5,1C58,57.5,58.6,55.8,57.9,54.4z"/></g></svg>