<svg xmlns="http://www.w3.org/2000/svg" xmlns:xlink="http://www.w3.org/1999/xlink" version="1.1" x="0px" y="0px" 
viewBox="0 0 48 60" enable-background="new 0 0 48 48" xml:space="preserve"><g><g>
<path d="M30.6,38.8H17.4C9,38.8,2.2,32,2.2,23.6V20c0-1.1,0.9-2,2-2h39.7c1.1,0,2,0.9,2,2v3.6C45.8,32,39,38.8,30.6,38.8z M6.1,22    
v1.6c0,6.3,5.1,11.3,11.3,11.3h13.1c6.3,0,11.3-5.1,11.3-11.3V22H6.1z"/></g><g><g>
<path d="M15.9,41.1c-1.1,0-2-0.9-2-2v-2.2c0-1.1,0.9-2,2-2s2,0.9,2,2v2.2C17.9,40.2,17,41.1,15.9,41.1z"/></g><g>
<path d="M32.1,41.1c-1.1,0-2-0.9-2-2v-2.2c0-1.1,0.9-2,2-2s2,0.9,2,2v2.2C34,40.2,33.1,41.1,32.1,41.1z"/></g></g><g>
<path d="M45.5,22H2.5c-1.1,0-2-0.9-2-2s0.9-2,2-2h43.1c1.1,0,2,0.9,2,2S46.6,22,45.5,22z"/></g><g><g>
<path d="M43.9,21.2c-1.1,0-2-0.9-2-2v-7.1c0-0.8-0.6-1.4-1.4-1.4c-0.8,0-1.4,0.6-1.4,1.4c0,1.1-0.9,2-2,2s-2-0.9-2-2     
c0-2.9,2.4-5.3,5.3-5.3c2.9,0,5.3,2.4,5.3,5.3v7.1C45.8,20.4,44.9,21.2,43.9,21.2z"/></g></g></g></svg>