<svg xmlns="http://www.w3.org/2000/svg" xmlns:xlink="http://www.w3.org/1999/xlink" 
version="1.1" x="0px" y="0px" viewBox="0 0 48 60" enable-background="new 0 0 48 48" xml:space="preserve"><g><g>
<path fill="#2f52b9" d="M37.9,19.7H10.1c-1.1,0-2-0.9-2-2V5.4c0-2.7,2.2-4.9,4.9-4.9h21.9c2.7,0,4.9,2.2,4.9,4.9v12.3    
C39.9,18.8,39,19.7,37.9,19.7z M12,15.8h23.9V5.4c0-0.6-0.5-1-1-1H13.1c-0.6,0-1,0.5-1,1V15.8z"/></g><g>
<path fill="#2f52b9" d="M45.6,32.9C45.5,32.9,45.5,32.9,45.6,32.9H2.4c-0.6,0-1.2-0.3-1.6-0.8c-0.4-0.5-0.5-1.2-0.3-1.8L5,17.1    
c0.3-0.8,1-1.3,1.9-1.3h34.2c0.8,0,1.6,0.5,1.9,1.3l4.4,13c0.1,0.3,0.2,0.6,0.2,0.9C47.5,32,46.6,32.9,45.6,32.9z M5.2,29h37.6    
l-3.1-9.3H8.3L5.2,29z"/></g><g><path fill="#2f52b9" d="M45.5,42.7H2.4c-1.1,0-2-0.9-2-2v-9.8c0-1.1,0.9-2,2-2h43.1c1.1,0,2,0.9,2,2v9.8C47.5,41.8,46.6,42.7,45.5,42.7z     
M4.4,38.8h39.2v-5.9H4.4V38.8z"/></g><g><path fill="#2f52b9" d="M2.4,47.5c-1.1,0-2-0.9-2-2v-4.8c0-1.1,0.9-2,2-2s2,0.9,2,2v4.8C4.4,46.6,3.5,47.5,2.4,47.5z"/></g><g>
<path fill="#2f52b9" d="M45.5,47.5c-1.1,0-2-0.9-2-2v-4.8c0-1.1,0.9-2,2-2s2,0.9,2,2v4.8C47.5,46.6,46.6,47.5,45.5,47.5z"/></g></g></svg>