<svg xmlns="http://www.w3.org/2000/svg" xmlns:xlink="http://www.w3.org/1999/xlink" version="1.1" x="0px" y="0px" 
viewBox="0 0 56 70" enable-background="new 0 0 56 56" xml:space="preserve">
<path d="M5.4628906,51.3022461H7.434082c1.3579102,0,2.4628906-1.1049805,2.4628906-2.4628906v-8.5595703h36.2060547v8.5595703  
c0,1.3579102,1.1049805,2.4628906,2.4628906,2.4628906h1.9711914C51.8950195,51.3022461,53,50.1972656,53,48.8393555V7.1606445  
c0-1.3579102-1.1049805-2.4628906-2.4628906-2.4628906H48.565918c-1.3579102,0-2.4628906,1.1049805-2.4628906,2.4628906v2.9892578  
H9.8969727V7.1606445c0-1.3579102-1.1049805-2.4628906-2.4628906-2.4628906H5.4628906C4.1049805,4.6977539,3,5.8027344,3,7.1606445  
v41.6787109C3,50.1972656,4.1049805,51.3022461,5.4628906,51.3022461z M9.8969727,38.2797852v-2.7895508h36.2060547v2.7895508  
H9.8969727z M33,33.4902344v-21.340332h6v21.340332H33z M31,33.4902344h-6v-21.340332h6V33.4902344z M23,33.4902344h-6v-21.340332h6  
V33.4902344z M48.1030273,7.1606445c0-0.2553711,0.2075195-0.4628906,0.4628906-0.4628906h1.9711914  
C50.7924805,6.6977539,51,6.9052734,51,7.1606445v41.6787109c0,0.2553711-0.2075195,0.4628906-0.4628906,0.4628906H48.565918  
c-0.2553711,0-0.4628906-0.2075195-0.4628906-0.4628906V7.1606445z M46.1030273,33.4902344H41v-21.340332h5.1030273V33.4902344z   
M15,12.1499023v21.340332H9.8969727v-21.340332H15z M5,7.1606445c0-0.2553711,0.2075195-0.4628906,0.4628906-0.4628906H7.434082  
c0.2553711,0,0.4628906,0.2075195,0.4628906,0.4628906v41.6787109c0,0.2553711-0.2075195,0.4628906-0.4628906,0.4628906H5.4628906  
C5.2075195,49.3022461,5,49.0947266,5,48.8393555V7.1606445z"/></svg>