<svg xmlns="http://www.w3.org/2000/svg" xmlns:xlink="http://www.w3.org/1999/xlink" version="1.1" x="0px" y="0px" 
viewBox="0 0 50 62.5" enable-background="new 0 0 50 50" xml:space="preserve"><g>
<path fill-rule="evenodd" clip-rule="evenodd" d="M13.166,37.426h17.59l1.508,11.583h6.713V20.393l8.155,0.344L50,14.485   
l-9.372-5.798L38.224,2.67l-1.861,3.484l-2.061-5.163L23.418,22.133H9.83L0,12.977l4.945,14.846v21.186h6.713L13.166,37.426z    
M8.707,24.987h16.452l8.815-17.123l2.015,5.048l1.861-3.485l0.476,1.193l8.029,4.967l-1.018,2.219l-9.214-0.389v28.739H34.77   
l-1.508-11.583H10.66L9.151,46.156H7.798V27.361l-1.555-4.669L8.707,24.987z"/></g></svg>