<svg xmlns="http://www.w3.org/2000/svg" xmlns:xlink="http://www.w3.org/1999/xlink" version="1.1" x="0px" y="0px" 
viewBox="0 0 50 62.5" enable-background="new 0 0 50 50" xml:space="preserve"><g>
<path fill-rule="evenodd" clip-rule="evenodd" d="M43.435,17.749L32.25,6.565l2.641-2.64l11.185,11.184L43.435,17.749z    
M40.942,25.834L24.166,9.057l3.326-3.326l16.776,16.776L40.942,25.834z M6.565,32.25l11.185,11.185l-2.64,2.64L3.925,34.891   
L6.565,32.25z M9.057,24.166l16.776,16.776l-3.326,3.326L5.731,27.492L9.057,24.166z M17.744,28.929l11.184-11.184l3.326,3.327   
L21.071,32.255L17.744,28.929z M26.967,15.782L15.782,26.966l-6.725-6.724l-7.25,7.251l2.795,2.796L0,34.891L15.109,50l4.602-4.603   
l2.796,2.796l7.251-7.251l-6.725-6.725l11.184-11.185l6.725,6.726l7.251-7.251l-2.796-2.796L50,15.109L34.891,0l-4.602,4.602   
l-2.796-2.796l-7.251,7.251L26.967,15.782z"/></g></svg>