<svg xmlns="http://www.w3.org/2000/svg" xmlns:xlink="http://www.w3.org/1999/xlink" version="1.1" x="0px" y="0px" 
viewBox="0 0 48 60" enable-background="new 0 0 48 48" xml:space="preserve"><g><g>
<path d="M32.7,24.6c-0.5,0-1,0-1.5-0.1l-29-2.3c-1-0.1-1.8-0.9-1.8-2V4.8c0-1,0.8-1.9,1.8-2l29-2.3c8.8-0.7,16.2,4.9,16.2,12    
C47.5,19.2,40.9,24.6,32.7,24.6z M4.4,18.5l27.2,2.1c6.5,0.5,12-3.3,12-8.1s-5.5-8.6-12-8.1L4.4,6.6V18.5z"/></g><g>
<path d="M30.5,47.5c-4.7,0-8.5-3.6-8.5-8.1V22c0-1.1,0.9-2,2-2s2,0.9,2,2v17.4c0,2.3,2.1,4.2,4.6,4.2s4.6-1.9,4.6-4.2V22    
c0-1.1,0.9-2,2-2s2,0.9,2,2v17.4C39,43.9,35.2,47.5,30.5,47.5z"/></g></g></svg>