<svg xmlns="http://www.w3.org/2000/svg" xmlns:xlink="http://www.w3.org/1999/xlink" version="1.1" x="0px" y="0px" viewBox="0 0 128 160" 
style="enable-background:new 0 0 128 128;" xml:space="preserve">
<path fill="#2f52b9" d="M6,128h92c1.1,0,2-0.9,2-2s-0.9-2-2-2h-6v-2.8c-1.4-0.8-2.8-1.7-4-2.8v5.6h-8V4.6l6.4,5.7C87.2,11,88,12.9,88,14v69.6  
c1.2-1.1,2.6-2,4-2.8V14c0-2.2-1.3-5.2-3-6.7l-6.7-6c-1-0.9-2.4-1.3-3.7-1.3c-1,0-1.9,0.2-2.7,0.7L63.5,7.9c-1.9,1.1-3.5,3.8-3.5,6  
v110h-4V79c0-2.2-1.6-4.9-3.5-6l-7.9-4.2c-1-0.6-2.4-0.8-3.8-0.8c-1.2,0-2.4,0.2-3.3,0.7l-9.7,4.6c-2,0.9-3.6,3.5-3.6,5.8v45h-8  
v-8.7l4-2.1V111l-4,2.1v-9.7l4-2.1V99l-4,2.1v-9.7l4-2.1V87l-4,2.1v-9.7l4-2.1v-0.8c0-0.5,0.1-1.1,0.3-1.6L16,77.1v-9.7l15-7.9v7.8  
l4-1.9V13.5l5.4,4.8c0.8,0.7,1.6,2.6,1.6,3.6v41.8c1,0.1,1.9,0.4,2.6,0.8l1.4,0.7V21.9c0-2.2-1.3-5.2-3-6.6l-6.7-5.9  
c-1-0.9-2.4-1.3-3.7-1.3c-1,0-1.9,0.2-2.7,0.7l-14.4,7.2c-1.9,1.1-3.5,3.8-3.5,6V124H6c-1.1,0-2,0.9-2,2S4.9,128,6,128z M64,14  
c0-0.8,0.8-2.2,1.5-2.6L76,5.2v9.2l-12,6.8V14z M64,23.5l12-6.8v9.7l-12,6.8V23.5z M64,35.5l12-6.8v9.7l-12,6.8V35.5z M64,47.5  
l12-6.8v9.7l-12,6.8V47.5z M64,59.5l12-6.8v9.7l-12,6.8V59.5z M64,71.5l12-6.8v9.7l-12,6.8V71.5z M64,83.5l12-6.8v9.7l-12,6.8V83.5z   
M64,95.5l12-6.8v9.7l-12,6.8V95.5z M64,107.5l12-6.8v9.7l-12,6.8V107.5z M64,119.5l12-6.8V124H64V119.5z M43,72.6l7.6,4  
c0.7,0.3,1.4,1.7,1.4,2.4v45h-9V72.6z M28,79c0-0.7,0.7-1.9,1.3-2.2l9.7-4.6V124H28V79z M16,21.9c0-0.7,0.7-2,1.4-2.5L31,12.6v8.6  
l-15,7.9V21.9z M16,31.3l15-7.9v9.7l-15,7.9V31.3z M16,43.3l15-7.9v9.7l-15,7.9V43.3z M16,55.3l15-7.9v9.7l-15,7.9V55.3z"/>
<path fill="#2f52b9" d="M84,101c0,10.5,8.5,19,19,19s19-8.5,19-19c0-10.5-8.5-19-19-19S84,90.5,84,101z M103,86c8.3,0,15,6.7,15,15s-6.7,15-15,15  
s-15-6.7-15-15S94.7,86,103,86z"/>
<path fill="#2f52b9" d="M95.7,105.1h3.7v3.7c0,1.5,1.1,2.7,2.4,2.7h2.4c1.3,0,2.4-1.2,2.4-2.7v-3.7h3.4c1.6,0,3-1.1,3-2.4v-2.4c0-1.3-1.3-2.4-3-2.4  
h-3.4v-3.4c0-1.6-1.1-3-2.4-3h-2.4c-1.3,0-2.4,1.3-2.4,3v3.4h-3.7c-1.5,0-2.7,1.1-2.7,2.4v2.4C93,104.1,94.2,105.1,95.7,105.1z   
M95,100.3c0-0.2,0.3-0.4,0.7-0.4h5.7v-5.4c0-0.6,0.3-1,0.4-1h2.4c0.1,0,0.4,0.3,0.4,1v5.4h5.4c0.6,0,1,0.3,1,0.4v2.4  
c0,0.1-0.3,0.4-1,0.4h-5.4v5.7c0,0.4-0.3,0.7-0.4,0.7h-2.4c-0.2,0-0.4-0.3-0.4-0.7v-5.7h-5.7c-0.4,0-0.7-0.3-0.7-0.4V100.3z"/></svg>