<svg xmlns="http://www.w3.org/2000/svg" data-name="Layer 1" viewBox="0 0 100 125" x="0px" y="0px">
<path d="M50.93,36.11A11.64,11.64,0,1,0,39.29,24.47,11.65,11.65,0,0,0,50.93,36.11Zm0-15.28a3.64,3.64,0,1,1-3.64,3.64A3.64,3.64,0,0,1,50.93,20.82Z"/>
<path d="M91.09,53.1V7.81a4,4,0,0,0-4-4H4.27a4,4,0,0,0-4,4V72.35a4,4,0,0,0,4,4h47A24.45,24.45,0,1,0,91.09,53.1ZM8.27,11.81H83.09V48.56a24.43,24.43,0,0,0-7.82-1.27l-.9,0-11.1-10.7A4,4,0,0,0,58,36.37L50.59,42.3,39,29.52A4,4,0,0,0,36,28.22a4,4,0,0,0-2.94,1.24L9.6,54.19a4,4,0,0,0,2.9,6.76H53.34a24.25,24.25,0,0,0-2.28,7.41H8.27ZM60,52.65l-4-4.43,4.28-3.42,4.87,4.69A24.49,24.49,0,0,0,60,52.65Zm-10.55.29H21.82L35.94,38.09ZM75.27,88.19A16.46,16.46,0,1,1,91.73,71.74,16.4,16.4,0,0,1,75.27,88.19Z"/>
<polygon points="79.27 59.47 71.27 59.47 71.27 67.74 63 67.74 63 75.74 71.27 75.74 71.27 84.01 79.27 84.01 79.27 75.74 87.55 75.74 87.55 67.74 79.27 67.74 79.27 59.47"/></svg>