<svg xmlns="http://www.w3.org/2000/svg" xmlns:xlink="http://www.w3.org/1999/xlink" version="1.1" x="0px" y="0px" 
viewBox="0 0 48 60" enable-background="new 0 0 48 48" xml:space="preserve"><g><g>
<path d="M38.1,39H2.5c-1.1,0-2-0.9-2-2c0-13.7,10.4-24.8,23.1-24.8h21.9c1.1,0,2,0.9,2,2v15c0,1.1-0.9,2-2,2H43    
c-1.6,0-2.9,1.4-2.9,3v2.9C40.1,38.2,39.2,39,38.1,39z M4.5,35.1h31.7v-1c0-3.8,3.1-6.9,6.9-6.9h0.5V16.2h-20    
C13.6,16.2,5.4,24.5,4.5,35.1z"/></g><g>
<path d="M45.5,16.2c-1.1,0-2-0.9-2-2V5.4c0-0.5-0.5-0.9-1.1-0.9H15.8c-1.1,0-2-0.9-2-2s0.9-2,2-2h26.7c2.8,0,5,2.2,5,4.9v8.8    
C47.5,15.3,46.6,16.2,45.5,16.2z"/></g><g><path d="M29.1,24.1h-4.4c-1.1,0-2-0.9-2-2s0.9-2,2-2h4.4c1.1,0,2,0.9,2,2S30.2,24.1,29.1,24.1z"/></g><g>
<path d="M45.5,47.5H2.5c-1.1,0-2-0.9-2-2s0.9-2,2-2h43.1c1.1,0,2,0.9,2,2S46.6,47.5,45.5,47.5z"/></g></g></svg>