<svg xmlns="http://www.w3.org/2000/svg" xmlns:xlink="http://www.w3.org/1999/xlink" version="1.1" x="0px" y="0px" 
viewBox="0 0 48 60" enable-background="new 0 0 48 48" xml:space="preserve"><g><g>
<path d="M40.2,31.4H7.8c-1.1,0-2-0.9-2-2v-27c0-1.1,0.9-2,2-2h32.3c1.1,0,2,0.9,2,2v27C42.1,30.6,41.2,31.4,40.2,31.4z M9.8,27.5    
h28.4V4.4H9.8V27.5z"/></g><g>
<path d="M45.5,47.5C45.5,47.5,45.5,47.5,45.5,47.5H2.5c-0.6,0-1.2-0.3-1.6-0.8c-0.4-0.5-0.5-1.2-0.3-1.8L6,28.9    
c0.3-0.8,1-1.3,1.9-1.3h32.3c0.8,0,1.6,0.5,1.9,1.3l5.3,15.8c0.1,0.3,0.2,0.6,0.2,0.9C47.5,46.6,46.6,47.5,45.5,47.5z M5.2,43.6    
h37.6l-4.1-12.1H9.2L5.2,43.6z"/></g><g>
<path d="M33.1,39.5H14.9c-1.1,0-2-0.9-2-2c0-1.1,0.9-2,2-2h18.2c1.1,0,2,0.9,2,2C35.1,38.6,34.2,39.5,33.1,39.5z"/></g></g></svg>