<?xml version="1.0" encoding="utf-8"?>
<!-- Generator: Adobe Illustrator 19.2.1, SVG Export Plug-In . SVG Version: 6.00 Build 0)  -->
<svg version="1.1" id="Layer_1" xmlns="http://www.w3.org/2000/svg" xmlns:xlink="http://www.w3.org/1999/xlink" x="0px" y="0px"
	 width="177px" height="79px" viewBox="0 0 177 79" style="enable-background:new 0 0 177 79;" xml:space="preserve">
<style type="text/css">
	.st0{fill:#E5B034;}
	.st1{fill:#231F20;}
</style>
<g>
	<g>
		<path class="st0" d="M96.9,37.6v0.3c-2.7-0.7-3.9-3.4-3.9-6c0-7.6,9.3-13.9,15.8-15.7c-0.5-0.1-2,0.3-2.5,0.4
			c-17.1,3.3-32,16.7-48.6,21.8c-1.4,0.4-6.4,1.6-7.8,1.6c-3.5,0-7.8,0-10.4-2.9c-3.3-3.6,0.6-9.4,5.2-11.1c1.2-0.4,3.8-1.3,5.1-1.3
			c-3.2,1.6-7.8,3.6-7.5,8.1c0.4,2.9,5.4,3.6,7.7,3.6c9.8,0,25.4-8.3,28.4-10c15.2-8.6,26.7-11.6,32.3-12.9c3-0.7,12.6-1.3,13.3-0.4
			c0.2,0.3,0.7,0.9,0,1.1c-1.2,0.4-4,0.4-4.6,0.5c-8.1,1.2-23.9,9.3-24.3,18.7C95,35.3,95.9,36.3,96.9,37.6"/>
		<path class="st0" d="M133.9,18.2c0.3,0.7-0.3,0.9-0.3,0.9c-0.4,0.6-15.4,4.9-15.3,11.7c0.1,7.2,12.8,7.2,18.7,3.1
			c1.1-0.8,3.2-2.8,3.2-4.2c0-0.5-0.1-0.8-0.6-1.1l0.1-0.2c1.6,0.4,0.8,2.8,0.2,3.7c-2.4,3.5-8.6,5.3-12.6,6.1
			c-16.3,3.3-18.3-10.5-2.3-17.4c-5.9-0.5-16.9,4.3-20.8,8.6c-0.8,0.9-1.3,1.8-2.2,2.7c0,0-0.4,0.5-0.3-0.1
			c1.1-4.7,11.3-11.8,21.3-12.7C126.5,18.7,130.2,18.2,133.9,18.2"/>
		<path class="st0" d="M49.9,20.7c1.2,0,4.2,0.4,4.2,2.7c0,0.6-0.9,2.5-1.6,2.5c0.1-0.1-0.1-0.1,0-0.2c0.4-0.7,1.3-1.6,1.3-2.2
			c0-1.4-3.1-1.6-3.7-1.6c-5,0-9.6,3.4-13.5,7.9c0.5-1.4,1.6-3.3,3-4.6C42.2,22.9,46.3,20.6,49.9,20.7"/>
	</g>
	<path class="st1" d="M61.8,46.3c-0.4,0-1.1,0.2-1.3,0.3c-0.1,0.1-0.1,0.2-0.1,0.4c-0.1,0.6-0.1,2.4-0.1,4c0,2.7,0,4.4,0.3,5.6
		c0,0.2,0.1,0.2,0.3,0.3c0.4,0.1,0.8,0.2,1.3,0.2c0.6,0,1.5-0.2,2.6-0.9c1.5-0.9,2.3-2.2,2.3-4.6c0-2.1-0.9-3.4-1.9-4.2
		C63.8,46.5,62.6,46.3,61.8,46.3L61.8,46.3z M59.8,58c-0.2,0-1.1,0-1.7,0l-1.2,0c-0.7,0-0.3,0-0.5,0c-0.2,0-0.2-0.1-0.2-0.1
		c-0.1-0.1-0.1-0.3,0-0.3c0.9-0.1,1.2-0.2,1.3-0.9l0.1-5.2l0-4.7c0-0.7-0.4-0.8-1.4-0.9c-0.1,0,0-0.2,0.1-0.3c0-0.1,0.1-0.1,0.2-0.1
		c0.2,0,1.3,0,2,0l0.7-0.1c1.3,0,2-0.1,3-0.1c1.3,0,3.9,0.2,5.6,1.8c1.4,1.3,2.1,2.8,2.1,4.6v0c0,1-0.5,2.9-1.9,4.2
		c-1.4,1.3-2.3,1.4-3.3,1.8c-1,0.3-1.7,0.3-3,0.3L59.8,58z"/>
	<path class="st1" d="M5.7,52.1l-0.1,4.7c0,0.7,0.5,0.7,1.4,0.8c0.1,0,0,0.2-0.1,0.3c0,0.1-0.1,0.1-0.2,0.1c-0.2,0-1.1,0-1.7,0
		l-1.2,0c-0.7,0-0.3,0-0.5,0c-0.2,0-0.2-0.1-0.2-0.1c-0.1-0.1-0.1-0.3,0-0.3c0.9-0.1,1.2-0.2,1.3-0.9l0.3-5.2l0.2-4.7
		c0-0.7-0.4-0.8-1.4-0.9c-0.1,0,0-0.2,0.1-0.3c0-0.1,0.1-0.1,0.2-0.1c0.2,0,1.3,0,2,0c0.6,0,0.9,0,1.4,0c0.1,0.4,0.3,0.9,0.4,1.1
		c0.9,1.8,2.7,5,3.8,7c0.1,0.2,0.2,0.2,0.3,0.1c1.2-2.2,2.7-5.1,3.7-7.1c0.1-0.2,0.2-0.7,0.3-1l1.6,0c0.7,0,1.7,0,2,0
		c0.2,0,0.2,0.1,0.2,0.1c0.1,0.1,0.1,0.3,0.1,0.3c-0.9,0.1-1.4,0.2-1.4,0.9l0.1,4.7l0,0.6l0.2,4.7c0,0.7,0.5,0.7,1.4,0.8
		c0.1,0,0,0.2-0.1,0.3c0,0.1-0.1,0.1-0.2,0.1c-0.2,0-1.4,0-2.1,0l-1,0c-0.7,0-1.6,0-1.8,0c-0.2,0-0.2-0.1-0.2-0.1
		c-0.1-0.1-0.1-0.3,0-0.3c0.9-0.1,1.2-0.2,1.3-0.9l0.1-4.7l0.1-3.9c0-0.2-0.1-0.2-0.2-0.1c-0.3,0.4-2.1,4.5-3,6.3
		c-0.9,2-1.3,2.8-1.3,3C11,57.8,11,58,10.7,58c-0.1,0-0.2-0.1-0.3-0.2c-0.1-0.2-0.6-1.1-1.2-2.3c-1.7-3.6-2.9-6-3.5-7.5L5.7,52.1z"
		/>
	<path class="st1" d="M34.5,56.9c0.3,0.7,0.8,0.7,1.8,0.8c0.1,0,0,0.2,0,0.3c0,0,0,0.1-0.2,0.1c-0.2,0-1.5,0-2.2,0l-1,0
		c-0.7,0-1.6,0-1.9,0c-0.2,0-0.2-0.1-0.2-0.1c-0.1-0.1-0.1-0.3-0.1-0.3c0.9-0.1,1-0.2,0.8-0.9l-0.9-2.4c-0.1-0.2-0.3-0.4-0.5-0.4
		c-0.6,0-2.7,0-3.4,0c-0.4,0-0.5,0.2-0.6,0.4l-0.9,2.4c-0.3,0.7,0,0.7,1,0.8c0.1,0,0,0.2,0,0.3c0,0.1,0,0.1-0.2,0.1
		c-0.2,0-1.3,0-1.9,0l-1.2,0c-0.7,0-0.3,0-0.5,0c-0.2,0-0.2-0.1-0.2-0.1c0-0.1,0-0.3,0.1-0.3c1-0.1,1.3-0.2,1.6-0.9l0.6-1.4l3.7-8.5
		c0.2-0.4,0.4-0.9,0.5-1.1c0-0.1,0.1-0.2,0.2-0.3c0.3-0.1,0.6-0.2,0.9-0.2h0c0.3,0,0.3,0,0.4,0.4c0.6,1.7,1,2.8,1.7,4.5L34.5,56.9z
		 M27.2,52.7c0.2,0,0.4,0,1.1,0c0.5,0,0.8,0,1.5,0c0.1,0,0.3-0.2,0.3-0.2c-0.7-2.1-1.1-3.2-1.4-3.8c0-0.1-0.2-0.1-0.2-0.1
		c-0.5,1.3-0.8,1.9-1.6,3.9C26.8,52.6,27,52.7,27.2,52.7L27.2,52.7z"/>
	<path class="st1" d="M83.8,56.9c0.3,0.7,0.8,0.7,1.8,0.8c0.1,0,0,0.2,0,0.3c0,0,0,0.1-0.2,0.1c-0.2,0-1.5,0-2.2,0l-1,0
		c-0.7,0-1.6,0-1.9,0c-0.2,0-0.2-0.1-0.2-0.1C80,57.8,80,57.7,80,57.7c0.9-0.1,1-0.2,0.8-0.9L80,54.4c-0.1-0.2-0.3-0.4-0.5-0.4
		c-0.6,0-2.7,0-3.4,0c-0.4,0-0.5,0.2-0.6,0.4l-0.9,2.4c-0.3,0.7,0,0.7,1,0.8c0.1,0,0,0.2,0,0.3c0,0.1,0,0.1-0.2,0.1
		c-0.2,0-1.3,0-1.9,0l-1.2,0c-0.7,0-0.3,0-0.5,0c-0.2,0-0.2-0.1-0.2-0.1c0-0.1,0-0.3,0.1-0.3c1-0.1,1.3-0.2,1.6-0.9l0.6-1.4l3.7-8.5
		c0.2-0.4,0.3-0.9,0.4-1.1c0-0.1,0.1-0.2,0.2-0.3c0.3-0.1,0.7-0.2,1-0.2h0c0.3,0,0.3,0,0.4,0.4c0.6,1.7,1,2.8,1.7,4.5L83.8,56.9z
		 M76.5,52.7c0.2,0,0.4,0,1.1,0c0.5,0,0.8,0,1.5,0c0.1,0,0.3-0.2,0.3-0.2c-0.7-2.1-1.1-3.2-1.4-3.8c0-0.1-0.2-0.1-0.2-0.1
		c-0.5,1.3-0.8,1.9-1.6,3.9C76.1,52.6,76.2,52.7,76.5,52.7L76.5,52.7z"/>
	<path class="st1" d="M112.9,56.9c0.3,0.7,0.8,0.7,1.8,0.8c0.1,0,0,0.2,0,0.3c0,0,0,0.1-0.2,0.1c-0.2,0-1.5,0-2.2,0l-1,0
		c-0.7,0-1.6,0-1.9,0c-0.2,0-0.2-0.1-0.2-0.1c-0.1-0.1-0.1-0.3-0.1-0.3c0.9-0.1,1-0.2,0.8-0.9l-0.9-2.4c-0.1-0.2-0.3-0.4-0.5-0.4
		c-0.6,0-2.7,0-3.4,0c-0.4,0-0.5,0.2-0.6,0.4l-0.9,2.4c-0.3,0.7,0,0.7,1,0.8c0.1,0,0,0.2,0,0.3c0,0.1,0,0.1-0.2,0.1
		c-0.2,0-1.3,0-1.9,0l-1.2,0c-0.7,0-0.3,0-0.5,0c-0.2,0-0.2-0.1-0.2-0.1c0-0.1,0-0.3,0.1-0.3c1-0.1,1.3-0.2,1.6-0.9l0.6-1.4l3.7-8.5
		c0.2-0.4,0.3-0.9,0.4-1.1c0-0.1,0.1-0.2,0.2-0.3c0.3-0.1,0.7-0.2,1-0.2h0c0.3,0,0.3,0,0.4,0.4c0.6,1.7,1,2.8,1.7,4.5L112.9,56.9z
		 M105.6,52.7c0.2,0,0.4,0,1.1,0c0.5,0,0.8,0,1.5,0c0.1,0,0.3-0.2,0.3-0.2c-0.7-2.1-1.1-3.2-1.4-3.8c0-0.1-0.2-0.1-0.2-0.1
		c-0.6,1.3-0.8,1.9-1.6,3.9C105.2,52.6,105.4,52.7,105.6,52.7L105.6,52.7z"/>
	<path class="st1" d="M160.2,56.9c0.3,0.7,0.8,0.7,1.8,0.8c0.1,0,0,0.2,0,0.3c0,0,0,0.1-0.2,0.1c-0.2,0-1.5,0-2.2,0l-1,0
		c-0.7,0-1.6,0-1.9,0c-0.2,0-0.2-0.1-0.2-0.1c-0.1-0.1-0.1-0.3-0.1-0.3c0.9-0.1,1-0.2,0.8-0.9l-0.9-2.4c-0.1-0.2-0.3-0.4-0.5-0.4
		c-0.6,0-2.7,0-3.4,0c-0.4,0-0.5,0.2-0.6,0.4l-0.9,2.4c-0.3,0.7,0,0.7,1,0.8c0.1,0,0,0.2,0,0.3c0,0.1,0,0.1-0.2,0.1
		c-0.2,0-1.3,0-1.9,0l-1.2,0c-0.7,0-0.3,0-0.5,0c-0.2,0-0.2-0.1-0.2-0.1c0-0.1,0-0.3,0.1-0.3c1-0.1,1.3-0.2,1.6-0.9l0.6-1.4l3.7-8.5
		c0.2-0.4,0.3-0.9,0.4-1.1c0-0.1,0.1-0.2,0.2-0.3c0.3-0.1,0.7-0.2,1-0.2h0c0.3,0,0.3,0,0.4,0.4c0.6,1.7,1,2.8,1.7,4.5L160.2,56.9z
		 M152.9,52.7c0.2,0,0.4,0,1.1,0c0.5,0,0.8,0,1.5,0c0.1,0,0.3-0.2,0.3-0.2c-0.7-2.1-1.1-3.2-1.4-3.8c0-0.1-0.2-0.1-0.2-0.1
		c-0.5,1.3-0.8,1.9-1.6,3.9C152.6,52.6,152.7,52.7,152.9,52.7L152.9,52.7z"/>
	<path class="st1" d="M50.1,48.7l0-2c0-0.7-0.5-0.7-1.4-0.8c-0.1,0,0-0.2,0.1-0.3c0-0.1,0.1-0.1,0.2-0.1c0.2,0,1,0,1.6,0l1.2,0
		c0.7,0,0.3,0,0.5,0c0.2,0,0.2,0.1,0.2,0.1c0.1,0.1,0.1,0.3,0,0.3c-0.9,0.1-1.2,0.2-1.3,0.9l0,1.8c-0.1,1.8-0.1,4.1-0.1,5.7
		c0,1.9,0.1,3,0.1,3.4c0,0.3-0.2,0.4-0.9,0.7c-0.1,0.1-0.2,0-0.3-0.2c-1.1-1.4-2.6-3-4.5-5c-2.4-2.5-4.3-4.3-4.3-4.3l-0.1,7.7
		c0,0.7,0.5,0.7,1.4,0.8c0.1,0,0,0.2-0.1,0.3c0,0.1-0.1,0.1-0.2,0.1c-0.2,0-1.1,0-1.7,0l-1.2,0c-0.7,0-0.3,0-0.5,0
		c-0.2,0-0.2-0.1-0.2-0.1c-0.1-0.1-0.1-0.3,0-0.3c0.9-0.1,1.2-0.2,1.3-0.9l0.1-5.2l0-4.7c0-0.7-0.4-0.8-1.4-0.9
		c-0.1,0,0-0.2,0.1-0.3c0-0.1,0.1-0.1,0.2-0.1c0.2,0,0.9,0,1.6,0h0.7c0.2,0,0.3,0,0.4,0.1c0.1,0,0.2,0.2,0.3,0.3
		c0.2,0.3,1.2,1.3,1.4,1.6c1.6,1.7,3,3.1,6.6,6.4C50.1,53.3,50.1,50.1,50.1,48.7"/>
	<path class="st1" d="M92.1,58c-0.2,0-1.1,0-1.7,0l-1.2,0c-0.7,0-0.3,0-0.5,0c-0.2,0-0.2-0.1-0.2-0.1c-0.1-0.1-0.1-0.3,0-0.3
		c0.9-0.1,1.2-0.2,1.3-0.9l0.1-5.2l0-1.3l0-1.5l0-1.9c0-0.7-0.5-0.7-1.4-0.8c-0.1,0,0-0.2,0.1-0.3c0-0.1,0.1-0.1,0.2-0.1
		c0.2,0,1,0,1.6,0l1.9,0c0.7,0,0.9,0,1.1,0c0.2,0,0.2,0.1,0.2,0.1c0.1,0.1,0.1,0.3,0,0.3c-0.9,0.1-1.2,0.2-1.3,0.9l0,1.8l0,1.7v2.4
		c0,2.7,0.1,3.3,0.1,3.6c0,0.3,0.2,0.5,0.5,0.5c0.3,0.1,0.5,0.1,1.4,0.1c1.3,0,2.5-0.2,3-1c0.2-0.2,0.3-0.6,0.5-1.3
		c0-0.1,0.1-0.1,0.2-0.1h0c0.2,0,0.2,0,0.3,0.1c0,0,0.1,0.2,0.1,0.3c-0.3,1-0.5,2-0.7,2.8c0,0.2-0.1,0.3-0.3,0.3c-0.2,0,0,0-0.8,0
		L92.1,58z"/>
	<path class="st1" d="M123,48.7l1.1-1.9c0.4-0.7-0.3-0.7-1.3-0.8c-0.1,0-0.1-0.2,0-0.3c0-0.1,0-0.1,0.2-0.1c0.2,0,1.7,0,2.4,0l0.9,0
		c0.5,0,0.8,0,1,0c0.1,0,0.1,0.1,0.1,0.1c0,0.1-0.1,0.3-0.1,0.3c-0.8,0.1-1,0.2-1.5,0.9l-1.4,1.8l-2,2.9c-0.3,0.4-0.3,0.7-0.3,1.5
		l0,1.1l0.1,2.6c0,0.7,0.5,0.7,1.4,0.8c0.1,0,0,0.2-0.1,0.3c0,0.1-0.1,0.1-0.2,0.1c-0.2,0-2.5,0-3.2,0l-1.2,0c-0.7,0-0.3,0-0.5,0
		c-0.2,0-0.2-0.1-0.2-0.1c-0.1-0.1-0.1-0.3,0-0.3c0.9-0.1,1.2-0.2,1.3-0.9l0.1-2l0-1.9c0-0.3-0.1-0.6-0.5-1.2l-1.7-2.9l-1.2-1.9
		c-0.4-0.7-0.5-0.7-1.4-0.8c-0.1,0-0.1-0.2-0.1-0.3c0-0.1,0-0.1,0.2-0.1c0.2,0,0.5,0,1.2,0l2.2,0c0.7,0,0.9,0,1.1,0
		c0.2,0,0.2,0.1,0.2,0.1c0,0.1,0,0.3-0.1,0.3c-1,0.1-0.7,0.2-0.4,0.9l1,1.8l0.9,1.6c0.1,0.2,0.2,0.4,0.4,0.5c0.1,0.1,0.2,0,0.3-0.1
		L123,48.7z"/>
	<path class="st1" d="M170.8,46.7c0.4-0.7-0.3-0.7-1.3-0.8c-0.1,0-0.1-0.2,0-0.3c0-0.1,0-0.1,0.2-0.1c0.2,0,1.7,0,2.4,0l0.9,0
		c0.5,0,0.8,0,1,0c0.1,0,0.1,0.1,0.1,0.1c0,0.1-0.1,0.3-0.1,0.3c-0.8,0.1-1,0.2-1.5,0.9l-1.4,1.8l-2,2.9c-0.3,0.4-0.3,0.7-0.3,1.5
		l0,1.1l0.1,2.6c0,0.7,0.5,0.7,1.4,0.8c0.1,0,0,0.2-0.1,0.3c0,0.1-0.1,0.1-0.2,0.1c-0.2,0-2.5,0-3.2,0l-1.2,0c-0.7,0-0.3,0-0.5,0
		c-0.2,0-0.2-0.1-0.2-0.1c-0.1-0.1-0.1-0.3,0-0.3c0.9-0.1,1.2-0.2,1.3-0.9l0.1-2l0-1.9c0-0.3-0.1-0.6-0.5-1.2l-1.7-2.9l-1.2-1.9
		c-0.4-0.7-0.5-0.7-1.4-0.8c-0.1,0-0.1-0.2-0.1-0.3c0-0.1,0-0.1,0.2-0.1c0.2,0,0.5,0,1.2,0l2.2,0c0.7,0,0.9,0,1.1,0
		c0.2,0,0.2,0.1,0.2,0.1c0,0.1,0,0.3-0.1,0.3c-1,0.1-0.7,0.2-0.4,0.9l1,1.8l0.9,1.6c0.1,0.2,0.2,0.4,0.4,0.5c0.1,0.1,0.2,0,0.3-0.1
		c1.2-1.7,1.6-2.5,1.8-2.8L170.8,46.7z"/>
	<path class="st1" d="M139,58c-0.2,0-1.1,0-1.7,0l-1.2,0c-0.7,0-0.3,0-0.5,0c-0.2,0-0.2-0.1-0.2-0.1c-0.1-0.1-0.1-0.3,0-0.3
		c0.9-0.1,1.2-0.2,1.3-0.9l0.1-5.2l0-4.7c0-0.7-0.4-0.8-1.4-0.9c-0.1,0,0-0.2,0.1-0.3c0-0.1,0.1-0.1,0.2-0.1c0.2,0,1.3,0,2,0
		l0.7-0.1l2.2-0.1c0.8,0,1.7,0.1,2.7,0.5c0.6,0.3,1.5,1.1,1.5,2.4c0,0.6-0.2,1.4-0.9,1.9c-0.4,0.3-0.6,0.5-0.8,0.5
		c-0.1,0,0,0.2,0.1,0.2c1.3,0.3,3,1.4,3,3.3c0,1.8-1.2,2.9-2.9,3.4c-0.8,0.3-1.8,0.3-2.1,0.3L139,58z M140.7,57.2
		c1.2,0,2.7-0.9,2.7-2.7c0-0.9-0.2-1.5-0.7-2c-0.7-0.7-1.6-0.9-2.1-0.9c-0.3,0-1,0-1.2,0.2c-0.1,0.1-0.2,0.5-0.2,1.2
		c0,3.3,0,3.4,0.4,3.8C139.9,57.1,140.1,57.2,140.7,57.2L140.7,57.2z M142.3,48.4c0-0.6-0.1-1-0.6-1.4c-0.4-0.4-1-0.6-1.5-0.6
		c-0.1,0-0.5,0-0.7,0.1c-0.2,0-0.2,0.1-0.2,0.2c0,0.2-0.1,0.4-0.1,1.3c0,1,0,1.7,0.1,2.3c0,0.2,0.1,0.3,0.3,0.3
		c0.2,0,0.4,0.1,0.8,0.1c0.3,0,0.7,0,1-0.2C142.1,50,142.3,49.3,142.3,48.4L142.3,48.4z"/>
	<path class="st1" d="M5.2,64.1c-0.3,0-0.5,0-0.7,0.1v2.1c0.2,0,0.4,0,0.6,0c1,0,1.4-0.4,1.4-1.1C6.6,64.6,6.1,64.1,5.2,64.1
		 M6.9,69.2L5.5,67c-0.1,0-0.2,0-0.3,0c-0.2,0-0.4,0-0.6,0v2.2H3.6v-5.8c0.5-0.1,1-0.1,1.5-0.1c1.7,0,2.4,0.8,2.4,1.8
		c0,0.8-0.4,1.4-1.2,1.7L8,69.2H6.9z"/>
	<polygon class="st1" points="10.7,69.2 10.7,63.4 14.4,63.4 14.4,64.2 11.7,64.2 11.7,65.9 14.1,65.9 14.1,66.6 11.7,66.6 
		11.7,68.4 14.4,68.4 14.4,69.2 	"/>
	<path class="st1" d="M18.7,69.3c-0.7,0-1.3-0.2-1.9-0.6l0.3-0.8c0.5,0.3,1,0.5,1.5,0.5c0.7,0,1-0.4,1-0.8c0-0.4-0.2-0.7-1.2-1.1
		c-1.1-0.4-1.4-0.9-1.4-1.6c0-0.8,0.7-1.6,1.9-1.6c0.6,0,1.1,0.2,1.5,0.4l-0.3,0.8c-0.3-0.2-0.8-0.4-1.2-0.4c-0.7,0-1,0.4-1,0.8
		c0,0.4,0.3,0.7,1,1c1.2,0.5,1.6,1,1.6,1.7C20.6,68.5,19.9,69.3,18.7,69.3"/>
	<path class="st1" d="M25.6,64.1c-1.2,0-2.1,1-2.1,2.2c0,1.3,0.9,2.2,2.1,2.2c1.2,0,2.1-1,2.1-2.2C27.7,65,26.8,64.1,25.6,64.1
		 M25.6,69.3c-1.7,0-3-1.3-3-3c0-1.7,1.4-3,3.1-3c1.7,0,3,1.3,3,3C28.6,68,27.3,69.3,25.6,69.3"/>
	<path class="st1" d="M32.5,64.1c-0.3,0-0.5,0-0.7,0.1v2.1c0.2,0,0.4,0,0.6,0c1,0,1.4-0.4,1.4-1.1C33.8,64.6,33.4,64.1,32.5,64.1
		 M34.2,69.2L32.7,67c-0.1,0-0.2,0-0.3,0c-0.2,0-0.4,0-0.6,0v2.2h-0.9v-5.8c0.5-0.1,1-0.1,1.5-0.1c1.7,0,2.4,0.8,2.4,1.8
		c0,0.8-0.4,1.4-1.2,1.7l1.6,2.4H34.2z"/>
	<polygon class="st1" points="39.8,64.2 39.8,69.2 38.9,69.2 38.9,64.2 36.9,64.2 36.9,63.4 41.7,63.4 41.7,64.2 	"/>
	<path class="st1" d="M50.4,64.9l-0.9,2.1h1.9L50.4,64.9z M52.3,69.2l-0.6-1.4h-2.5l-0.6,1.4h-0.9l2.8-5.9h0.1l2.8,5.9H52.3z"/>
	<polygon class="st1" points="60.3,69.3 56.4,65.2 56.4,69.2 55.5,69.2 55.5,63.3 55.7,63.3 59.5,67.3 59.5,63.4 60.4,63.4 
		60.4,69.3 	"/>
	<path class="st1" d="M65,64.1c-0.3,0-0.6,0-0.8,0.1v4.3c0.3,0,0.5,0.1,0.9,0.1c1.6,0,2.4-1,2.4-2.2C67.4,65,66.6,64.1,65,64.1
		 M64.9,69.2c-0.6,0-1.1,0-1.7-0.1v-5.7c0.5-0.1,1-0.1,1.7-0.1c2.4,0,3.5,1.3,3.5,2.9C68.4,67.8,67.3,69.2,64.9,69.2"/>
	<path class="st1" d="M77.4,69.3c-1.9,0-3.2-1.3-3.2-3c0-1.7,1.4-3,3.2-3c0.8,0,1.5,0.2,2,0.5l-0.3,0.7c-0.5-0.3-1.1-0.5-1.7-0.5
		c-1.4,0-2.2,0.9-2.2,2.2c0,1.3,0.9,2.2,2.3,2.2c0.6,0,1.2-0.2,1.7-0.5l0.3,0.7C78.9,69,78.2,69.3,77.4,69.3"/>
	<path class="st1" d="M83.6,64.9l-0.9,2.1h1.9L83.6,64.9z M85.5,69.2l-0.6-1.4h-2.5l-0.6,1.4h-0.9l2.8-5.9h0.1l2.8,5.9H85.5z"/>
	<path class="st1" d="M89.9,69.3c-0.7,0-1.3-0.2-1.8-0.6l0.3-0.8c0.5,0.3,1,0.5,1.5,0.5c0.7,0,1-0.4,1-0.8c0-0.4-0.2-0.7-1.2-1.1
		c-1.1-0.4-1.4-0.9-1.4-1.6c0-0.8,0.7-1.6,1.9-1.6c0.6,0,1.1,0.2,1.5,0.4l-0.3,0.8c-0.3-0.2-0.8-0.4-1.2-0.4c-0.7,0-1,0.4-1,0.8
		c0,0.4,0.3,0.7,1,1c1.2,0.5,1.6,1,1.6,1.7C91.8,68.5,91.1,69.3,89.9,69.3"/>
	<rect x="94.5" y="63.4" class="st1" width="0.9" height="5.8"/>
	<polygon class="st1" points="103.3,69.3 99.4,65.2 99.4,69.2 98.5,69.2 98.5,63.3 98.7,63.3 102.5,67.3 102.5,63.4 103.4,63.4 
		103.4,69.3 	"/>
	<path class="st1" d="M108.5,64.1c-1.2,0-2.1,1-2.1,2.2c0,1.3,0.9,2.2,2.1,2.2c1.2,0,2.1-1,2.1-2.2C110.6,65,109.7,64.1,108.5,64.1
		 M108.5,69.3c-1.7,0-3-1.3-3-3c0-1.7,1.4-3,3.1-3c1.7,0,3,1.3,3,3C111.6,68,110.2,69.3,108.5,69.3"/>
	<path class="st1" d="M112.3,70.3l-0.1-0.1c0.3-0.3,0.5-0.5,0.6-0.8c-0.3,0-0.5-0.2-0.5-0.5c0-0.3,0.2-0.5,0.5-0.5
		c0.3,0,0.5,0.3,0.5,0.6C113.3,69.4,112.9,70,112.3,70.3"/>
	<polygon class="st1" points="119.8,69.2 119.8,63.4 120.7,63.4 120.7,68.4 123.4,68.4 123.4,69.2 	"/>
	<path class="st1" d="M128.2,64.9l-0.9,2.1h1.9L128.2,64.9z M130.1,69.2l-0.6-1.4h-2.5l-0.6,1.4h-0.9l2.8-5.9h0.1l2.8,5.9H130.1z"/>
	<path class="st1" d="M134.5,69.3c-0.7,0-1.3-0.2-1.9-0.6L133,68c0.5,0.3,1,0.5,1.5,0.5c0.7,0,1-0.4,1-0.8c0-0.4-0.2-0.7-1.2-1.1
		c-1.1-0.4-1.4-0.9-1.4-1.6c0-0.8,0.7-1.6,1.9-1.6c0.6,0,1.1,0.2,1.5,0.4l-0.3,0.8c-0.3-0.2-0.8-0.4-1.2-0.4c-0.7,0-1,0.4-1,0.8
		c0,0.4,0.3,0.7,1,1c1.2,0.5,1.6,1,1.6,1.7C136.5,68.5,135.7,69.3,134.5,69.3"/>
	<polygon class="st1" points="143.4,69.3 143.3,69.3 140.6,63.4 141.6,63.4 143.4,67.5 145.2,63.4 146.2,63.4 	"/>
	<polygon class="st1" points="148,69.2 148,63.4 151.7,63.4 151.7,64.2 149,64.2 149,65.9 151.4,65.9 151.4,66.6 149,66.6 149,68.4 
		151.7,68.4 151.7,69.2 	"/>
	<path class="st1" d="M158.8,66.2v2.5c-0.6,0.4-1.3,0.6-2.2,0.6c-1.7,0-3.2-1.2-3.2-3c0-1.8,1.5-3,3.2-3c0.9,0,1.6,0.3,2.2,0.6
		l-0.4,0.7c-0.5-0.3-1.1-0.5-1.7-0.5c-1.4,0-2.3,1-2.3,2.2c0,1.3,1,2.2,2.3,2.2c0.5,0,0.9-0.1,1.3-0.3V67h-1.5v-0.8H158.8z"/>
	<path class="st1" d="M163.3,64.9l-0.9,2.1h1.9L163.3,64.9z M165.2,69.2l-0.6-1.4h-2.5l-0.6,1.4h-0.9l2.8-5.9h0.1l2.8,5.9H165.2z"/>
	<path class="st1" d="M169.7,69.3c-0.7,0-1.3-0.2-1.9-0.6l0.3-0.8c0.5,0.3,1,0.5,1.5,0.5c0.7,0,1-0.4,1-0.8c0-0.4-0.2-0.7-1.2-1.1
		c-1.1-0.4-1.4-0.9-1.4-1.6c0-0.8,0.7-1.6,1.9-1.6c0.6,0,1.1,0.2,1.5,0.4l-0.3,0.8c-0.3-0.2-0.8-0.4-1.2-0.4c-0.7,0-1,0.4-1,0.8
		c0,0.4,0.3,0.7,1,1c1.2,0.5,1.6,1,1.6,1.7C171.7,68.5,170.9,69.3,169.7,69.3"/>
</g>
</svg>
