<svg xmlns="http://www.w3.org/2000/svg" xmlns:xlink="http://www.w3.org/1999/xlink" version="1.1" x="0px" y="0px" 
viewBox="0 0 100 125" enable-background="new 0 0 100 100" xml:space="preserve"><g>
<path d="M75.663,94.434H7.039c-3.001,0-6.446-0.663-6.446-5.838V10.903c0-5.174,3.445-5.838,6.446-5.838h68.624   
c0.907,0,1.643,0.736,1.643,1.643s-0.735,1.643-1.643,1.643H7.039c-2.85,0-3.16,0.517-3.16,2.552v77.692   
c0,2.035,0.311,2.553,3.16,2.553h68.624c0.907,0,1.643,0.735,1.643,1.643S76.57,94.434,75.663,94.434z"/>
<path d="M67.667,84.411H15.276c-2.585,0-4.688-2.103-4.688-4.688V20.021c0-2.585,2.104-4.688,4.688-4.688l52.391,0   
c2.585,0,4.688,2.104,4.688,4.689v59.702C72.355,82.309,70.252,84.411,67.667,84.411z M67.667,18.618H15.276   
c-0.774,0-1.403,0.629-1.403,1.403v59.702c0,0.773,0.629,1.403,1.403,1.403h52.391c0.773,0,1.403-0.63,1.403-1.403V20.021   
C69.07,19.247,68.44,18.618,67.667,18.618z"/>
<path d="M87.23,97.651C87.229,97.651,87.229,97.651,87.23,97.651L87.23,97.651L87.23,97.651H75.795   
c-0.907,0-1.643-0.735-1.643-1.643V3.3c0-0.907,0.735-1.643,1.643-1.643h11.435c4.167,0,7.558,4.084,7.558,9.105v77.785   
c0,2.363-0.741,4.599-2.089,6.297C91.264,96.654,89.321,97.651,87.23,97.651z M77.438,94.366h9.792l0,0h0.001   
c1.066,0,2.095-0.556,2.894-1.563c0.889-1.12,1.377-2.631,1.377-4.256V10.762c0-3.208-1.916-5.819-4.271-5.819h-9.792V94.366z"/>
<path d="M98.95,31.154h-5.807c-0.907,0-1.643-0.735-1.643-1.643s0.735-1.643,1.643-1.643h4.164V15.384h-4.164   
c-0.907,0-1.643-0.735-1.643-1.643s0.735-1.643,1.643-1.643h5.807c0.907,0,1.644,0.736,1.644,1.643v15.77   
C100.594,30.419,99.857,31.154,98.95,31.154z"/>
<path d="M34.079,81.536h-7.552c-2.149,0-3.77-1.615-3.77-3.757V58.458c0-0.629,0.463-4.359,2.154-5.9l1.041-12.154   
c-0.254-0.384-0.433-0.93-0.433-1.706v-1.257c0-1.445,1.112-2.62,2.479-2.62h4.439c1.367,0,2.479,1.175,2.479,2.62l0,1.378   
c0.003,0.428,0.008,1.113-0.424,1.698l1.098,11.96c1.807,1.521,2.258,5.524,2.258,6.399v19.321   
C37.849,80.039,36.158,81.536,34.079,81.536z M27.021,55.087c-0.413,0.571-0.978,2.479-0.978,3.371v19.321   
c0,0.176,0,0.471,0.484,0.471h7.552c0.248,0,0.416-0.093,0.484-0.153v-19.22c0-1.214-0.554-3.161-0.97-3.773   
c-0.633-0.19-1.129-0.742-1.192-1.421l-1.272-13.857c-0.042-0.46,0.111-0.917,0.423-1.257c0.025-0.028,0.052-0.055,0.079-0.081   
v-0.381h-2.827v0.384c0.039,0.037,0.076,0.077,0.111,0.118c0.284,0.334,0.423,0.768,0.385,1.205l-1.188,13.865   
C28.056,54.333,27.618,54.878,27.021,55.087z"/>
<path d="M57.048,81.536h-7.552c-2.149,0-3.77-1.615-3.77-3.757V58.458c0-0.629,0.463-4.359,2.154-5.9l1.041-12.154   
c-0.254-0.384-0.433-0.93-0.433-1.706v-1.257c0-1.445,1.112-2.62,2.479-2.62h4.44c1.367,0,2.479,1.175,2.479,2.62v1.376   
c0.003,0.429,0.008,1.115-0.426,1.701l1.1,11.959c1.806,1.521,2.258,5.524,2.258,6.399v19.321   
C60.818,80.039,59.127,81.536,57.048,81.536z M49.99,55.087c-0.413,0.571-0.978,2.479-0.978,3.371v19.321   
c0,0.176,0,0.471,0.484,0.471h7.552c0.248,0,0.416-0.093,0.485-0.153v-19.22c0-1.214-0.554-3.161-0.97-3.773   
c-0.633-0.19-1.13-0.742-1.191-1.421l-1.273-13.857c-0.043-0.46,0.111-0.916,0.422-1.257c0.025-0.028,0.053-0.056,0.08-0.083   
v-0.379h-2.827v0.384c0.039,0.037,0.075,0.077,0.11,0.118c0.284,0.334,0.423,0.768,0.386,1.205l-1.188,13.865   
C51.025,54.333,50.587,54.878,49.99,55.087z"/></g></svg>