<?xml version="1.0" encoding="utf-8"?>
<!-- Generator: Adobe Illustrator 23.0.2, SVG Export Plug-In . SVG Version: 6.00 Build 0)  -->
<svg version="1.1" id="Layer_1" xmlns="http://www.w3.org/2000/svg" xmlns:xlink="http://www.w3.org/1999/xlink" x="0px" y="0px"
	 width="177px" height="79px" viewBox="0 0 177 79" style="enable-background:new 0 0 177 79;" xml:space="preserve">
<style type="text/css">
	.st0{fill:#564D9F;}
	.st1{fill:#FFC11C;}
	.st2{fill:#D6569E;}
	.st3{fill:#F06847;}
	.st4{fill:#0DA986;}
</style>
<path class="st0" d="M132.66,25.46c-0.24-0.23-0.49-0.34-0.78-0.53c-0.29,0.34-0.45,0.75-0.56,1.15c-0.07,0.14-0.14,0.29-0.1,0.36
	c0.23,0.13,0.88,0.21,1.13,0.42C132.77,26.61,132.46,25.9,132.66,25.46 M130.85,25.44c-0.33-0.01-0.44,0.34-0.6,0.55
	c-0.15-0.02-0.1-0.32-0.15-0.47c0.27-0.29,0.24-0.73,0.36-1.08c-0.34-0.38-0.91,0.01-1.33-0.22c-0.11,0.17-0.21,0.34-0.28,0.52
	c-0.08,0.07-0.21,0.05-0.3,0.07c-0.05-0.23,0.24-0.39,0.29-0.61c-0.04-0.1-0.1-0.21-0.29-0.14c-0.44,0.26-0.62-0.36-0.89-0.53
	c0.39-0.64,1.05-0.39,1.5-0.87c0.14-0.16,0.1-0.45,0-0.58c0.36-0.3,0.42-0.78,0.64-1.11c-0.24-0.17-0.69-0.12-1.01-0.11
	c-1.74,0.35-3.46,0.79-5.18,1.19c-0.87-0.6-1.58-1.56-2.61-1.83c-0.37-0.11-0.63-0.47-1.02-0.56c-1.67-0.48-3.36-0.91-5.09-1.29
	c-0.63,0.05-1.48-0.24-2.08,0.06c-0.19,1.12-1.66,0.39-2.39,0.9c-0.2-0.03-0.3,0.23-0.22,0.38c-0.33,0.45-0.35,1.06-0.83,1.42
	c-0.32,0.06-0.71,0.29-0.82,0.64c0.11,0.08,0.22,0.16,0.37,0.14c0.64-0.22,1.32-0.51,2.01-0.34c0.36-0.08,0.67-0.07,0.97-0.19
	c0.89-0.1,1.9,0.27,2.9,0.32c0.24-0.01,0.41,0.35,0.66,0.14c0.5,0.14,1.07,0.11,1.49,0.48c0.05,0.19-0.17,0.24-0.25,0.36
	c-1.31,0.31-2.47,1.03-3.69,1.54c-1.36,1.18-2.84,2.18-4.05,3.36c0.07,0.1,0.18,0.1,0.29,0.1c0.15-0.53,0.64,0.15,0.74-0.44
	c0.19-0.12,0.45-0.17,0.61,0.06c0.06,0.32-0.3,0.12-0.45,0.21c0.14,0.41-0.44,0.34-0.45,0.69c-0.24,0.01-0.23,0.31-0.42,0.43
	c-0.11,0.53-0.71,0.75-0.97,1.23c0.03,0.06,0.09,0.08,0.16,0.08c0.76-0.57,1.73-0.65,2.46-1.25c0.96-0.34,1.83-0.86,2.72-1.41
	c0.59-0.24,1.19-0.48,1.79-0.72c1.05-0.35,1.97-1.14,3.05-1.39c0.11,0.08,0.11,0.17,0.03,0.24c-1.18,0.96-2.25,2.13-2.99,3.33
	c-0.03,0.2,0.04,0.45-0.1,0.61c-0.06,0.05-0.15,0.05-0.23,0.09c-0.11,0.5-0.37,0.92-0.58,1.35c0.1,0.75-0.66,1.24-0.5,2.02
	c0.15,0.02,0.24-0.07,0.39-0.03c0.23,0.23,0.26,0.53,0.34,0.81c-0.14,0.24-0.39,0.45-0.61,0.57c-0.21,0.14-0.5-0.17-0.58,0.13
	c0.44,0.16,0.93,0.05,1.27-0.23c1.42-1.9,2.53-3.94,4.15-5.73c0.8-1.07,1.89-1.62,2.95-2.25c0.24,0.08-0.06,0.24-0.01,0.39
	c-1.37,1.58-1.79,3.44-1.73,5.58c0.44,2.69,0.74,5.41,1.15,8.05c-0.01,0.93,0.03,1.82-0.02,2.74c0.25,0.7-0.07,1.37,0.19,2.08
	c-0.04,2.65,0.22,5.33,0.09,8.14c0.05,0.61-0.05,1.5,0,2.17c-0.17,0.48,0.25,0.82-0.04,1.21c0.09,2.28,0.08,4.62,0.73,6.7
	c0.1,0.37,0.33,0.14,0.54,0.02c0.11,0.13-0.02,0.43,0.21,0.47c0.16,0.1,0.32-0.1,0.42-0.22c0.11-1.13,0.81-1.99,1.07-3.06
	c-0.29-2.85-0.15-5.85-0.16-8.8c-0.29-3.98-0.35-8.12-0.69-12.14c-0.31-0.23-0.13-0.66-0.15-1.01c-0.2-0.17-0.17-0.43-0.26-0.64
	c-0.1-2.84-1.71-5.83-0.16-8.59c0.08-0.09,0.26-0.08,0.33,0.01c0.84,2.03,0.94,4.41,1.2,6.68c0.03,0.24,0.21,0.45,0.09,0.71
	c0.16,0.32,0.55,0.24,0.82,0.36c0.34-0.25,0.42-0.69,0.76-0.98c0.2-0.85,0.76-1.74,0.41-2.62c0.12-2.48-1.18-4.49-1.37-6.89
	c0-0.11,0.14-0.18,0.25-0.16c1.15,1.04,2.69,2.04,3.18,3.54c0.61,1.21,0.18,2.79,1.16,3.86c0.22,0.19,0.57,0.09,0.8-0.01
	c0.14-0.87-0.01-1.78,0.13-2.61c-0.05-0.08-0.18-0.08-0.2-0.19c0.42-1.39-0.98-2.3-1.4-3.42c-0.07-0.06-0.15-0.06-0.2-0.14
	c-0.06-0.54-0.72-0.6-0.7-1.14c0.44,0.05,0.98,0,1.5,0.09c0.19-0.01,0.31-0.23,0.33,0.09c0.1-0.03,0.23,0.06,0.38,0.07
	c0.16,0.01,0.33-0.06,0.37-0.28C131.11,25.89,131.08,25.56,130.85,25.44 M114.29,33.34c-0.05-0.06-0.14-0.14-0.2-0.06
	C114.1,33.35,114.25,33.35,114.29,33.34"/>
<path class="st1" d="M130.41,56.59c-0.03-0.09-0.08-0.28-0.19-0.25c0.08,0.3-0.3,1.71,0.27,0.77
	C130.27,56.94,130.37,56.81,130.41,56.59 M125.07,19.93c-0.17-0.01-0.3,0.19-0.31,0.36C125.05,20.53,124.88,20,125.07,19.93
	 M130.21,58.61c0.14-0.26,0.08-0.65-0.04-0.86C130.14,57.97,130.03,58.41,130.21,58.61 M143.98,22.86c-0.24,0.03-0.19-0.25-0.19-0.4
	c-0.18-0.53-0.68-0.91-1.02-1.33c-1.02-1-2.21-2.1-3.41-2.87c-0.31-0.17-0.55-0.45-0.88-0.56c-0.73,0.31-0.96-0.49-1.75-0.36
	c-0.22-0.12-0.38,0.01-0.38-0.16c-0.1-0.18-0.24-0.25-0.51-0.21c-1.69-1.62-3.88-2.1-6.13-2.42c-0.34,0.21-0.59-0.02-0.97,0.04
	c0,0.13-0.16,0.29-0.21,0.29c0.02-0.13-0.03-0.22-0.12-0.3c-0.56,0.18-0.95-0.44-1.44-0.18c-0.25,0.81,0.81,0.73,1.17,1.06
	c0.87,0.05,1.69,0.39,2.48,0.74c0.36,0.44,1.13,0.09,1.35,0.71c-0.06,0.26-0.39,0.15-0.58,0.24c-1.6-0.37-2.86,0.6-4.18,1.23
	c-0.64,0.14,0.18,0.54-0.1,0.83c-0.11-0.04-0.2-0.1-0.29-0.21c-0.17,0.05-0.2-0.23-0.32-0.25c-0.64,0.15,0.17,0.56,0.08,0.91
	c-0.16,0.2-0.26-0.12-0.41-0.11c-0.13,0.03-0.04,0.17-0.08,0.26c-0.4,0.34-0.67,0.59-1.06,1c-0.05,0.22-0.56,0.13-0.29,0.38
	c1.38-0.25,2.48-1.29,3.86-1.53c0.67-0.55,1.59-0.41,2.39-0.58c0.02,0.04,0.05,0.06,0.07,0.07c-0.3,0.66-0.8,1.24-1.25,1.83
	c-0.22,0.33-0.28,0.81-0.64,1.11c0.1,0.13,0.14,0.42,0,0.58c-0.04,0.51-0.11,1.1-0.32,1.54c-0.05,0.22-0.34,0.38-0.29,0.61
	c0.09-0.02,0.22,0.01,0.3-0.07c0.07-0.18,0.17-0.35,0.28-0.52c0.49-0.77,1.31-1.42,2.01-1.98c0.06-0.03,0.13-0.01,0.19-0.01
	c0.21,0.27-0.22,0.49-0.2,0.83c-0.31,0.41-0.49,0.9-0.68,1.38c-0.12,0.35-0.09,0.79-0.36,1.08c0.05,0.15,0,0.45,0.15,0.47
	c0.16-0.22,0.26-0.57,0.59-0.55c0.24,0.12,0.26,0.46,0.18,0.71c-0.04,0.22-0.21,0.29-0.37,0.28c0.05,0.24-0.05,0.58,0.11,0.79
	c0.09,0.02,0.17-0.03,0.23-0.07c0.07-0.24,0.15-0.47,0.23-0.7c-0.04-0.08,0.03-0.22,0.1-0.36c0.11-0.4,0.27-0.81,0.56-1.15
	c0.22-0.39,0.5-0.77,0.81-1.13c0.06,0,0.11,0,0.17,0.01c0.25,0.4-0.12,0.77-0.21,1.14c-0.01,0.16,0.03,0.36,0.01,0.52
	c-0.2,0.44,0.11,1.14-0.31,1.41c-0.12,0.83-0.17,1.67-0.16,2.53c-0.47,1.74-0.05,3.5-0.22,5.26c0.17,0.38,0.04,0.89,0.05,1.28
	c0.32,0.44-0.11,0.98,0.11,1.5c-0.04,0.13-0.23,0.27-0.07,0.43c-0.18,0.79-0.05,1.41-0.2,2.16c-0.01,1.74-0.28,3.37-0.55,5.08
	c0.14,0.32,0.01,0.67-0.27,0.86c-0.07,0.87-0.07,1.93-0.39,2.77c-0.14,2.28-0.34,4.91-0.42,7.33c0.02,0,0.04,0,0.07,0
	c0.24-0.38-0.17-0.99,0.38-1.27c0-0.15-0.23-0.21-0.19-0.38c0.24,0.03,0.05-0.24,0.21-0.33c0.1,0.32,0.29,0.66,0.26,1.05
	c-0.21,0.19-0.29,0.38-0.27,0.69c0.3,0.57,0.4,1.33,0.17,1.97c-0.39,0.1,0,0.44-0.02,0.7c-0.3,0.25,0.1,0.47,0.03,0.74
	c-0.01,0.26-0.3,0.08-0.43,0.17c-0.09,0.41,0.42,0.26,0.56,0.52c0.08,0.23-0.18,0.38-0.26,0.57c-0.3,0.03-0.13,0.37-0.19,0.57
	c0.11,0,0.22,0.03,0.29,0.14c0.18,0.34-0.08,0.65-0.13,0.96c0.33,0.2,0.02,0.59,0.1,0.8c0.11-0.53,0.51-0.93,0.48-1.52
	c-0.04-0.48,0.49-0.8,0.28-1.29c0.55-1.87,0.71-3.91,1-5.9c0.02-1.54,0.31-3.01,0.44-4.53c0.49-2.76,1.01-5.53,1.13-8.47
	c0.57-4.17-0.55-8.2,0.22-12.22c0.34-2.21,0.6-4.47,1.69-6.34c0.1-0.05,0.28-0.08,0.33,0.07c-0.05,0.48,0.59,0.6,0.46,1.09
	c0.69,0.93,0.99,2.02,1.02,3.21c0.47,0.26-0.06,0.57-0.03,0.89c0.09,0.24,0.36,0.29,0.6,0.34c0.09-0.31,0.58-0.11,0.48-0.52
	c0.54-0.67,0.45-1.76,0.35-2.6c-0.43-0.53-0.16-1.32-0.53-1.87c-0.05-0.13-0.04-0.39,0.18-0.33c0.51,0.42,0.91,0.92,1.21,1.47
	c0.06-0.02,0.1,0.02,0.16,0.04c0.23,0.34,0.11,1.13,0.69,1.03c0.17-0.16,0.39-0.02,0.58-0.18c0.09-1.13-0.45-2.08-1.11-2.88
	c-0.26-0.33-0.55-0.69-0.86-0.98l-0.02-0.01c-0.34-0.25-0.72-0.61-1.1-0.85c-0.31-0.2-0.62-0.4-0.93-0.55
	c-0.24-0.21-0.6,0.13-0.77-0.23c-0.11-0.15-0.06-0.39,0.13-0.5c0.39,0.03,0.85-0.01,1.33,0.08c0.12,0.14,0.3,0.22,0.47,0.27
	c0.39-0.08,0.86,0.15,1.02,0.48c0.05,0.22,0.4,0.19,0.54,0.4c0.15,0.09,0.33,0.28,0.47,0.38c0.58,0.39,1.22,0.91,1.76,1.39
	c0.5,0.46,1.04,1.01,1.52,1.49c0.07,0,0.11,0.1,0.2,0.06C144.55,23.49,144.01,23.21,143.98,22.86"/>
<path class="st2" d="M157.73,32.43c-1.23-1.91-2.68-3.93-4.54-5.42c-0.38-0.31-1.11-0.11-1.18-0.75c0.34-0.27,0.84-0.25,1.27-0.36
	c0.83-0.42,1.85-0.36,2.82-0.4c0.5,0.02,0.99,0.28,1.47,0.33c0.27-0.92-0.9-0.92-1.36-1.33c-2.49-0.44-5.24-0.26-7.34,0.99
	c-0.7-0.1-1.4-0.18-2.1-0.28c-1.85-0.22-3.49,0.16-4.94,1c-0.28,0.25-1.01,0.31-0.88,0.97c-0.34,0.12-0.39,0.52-0.33,0.86
	c0.29,0.27,0.86-0.23,0.86,0.23c-0.09,0.05-0.1,0.18-0.17,0.22c0.11,0.06,0.07,0.08,0.16,0.17c0.53-0.11,0.95-0.58,1.48-0.74
	c0.37-0.1,0.79-0.31,1.17-0.16c0,0.41-0.29,0.81-0.67,1.02c-0.07,0.52-0.9,0.71-0.82,1.23c-0.32,0.23,0.17,0.43-0.06,0.7
	c-0.05,0.74-0.74,1.01-1.19,1.57c1.2-0.33,2.05-1.36,3.15-1.97c0.05-0.03,0.15-0.05,0.2,0.01c0.24-0.51,0.76-0.66,1.22-0.83
	c0.21,0.32-0.1,0.67-0.22,0.96c-0.42,1.3-1.13,2.5-1.38,3.83c0.13-0.05,0.27-0.23,0.42-0.36c0.09,0.13,0.39,0.03,0.34,0.29
	c-0.04,0.07-0.11,0.07-0.17,0.03c-0.39,0.51-0.25,1.4-0.26,1.96c0.06,0.02,0.09-0.03,0.13-0.07c-0.04-0.5,0.51-0.74,0.47-1.25
	c0.44-0.5,0.69-1.15,1.19-1.63c0.15-0.14,0.12-0.44,0.35-0.49c0.05,0.04,0.05,0.09,0.11,0.13c-0.25,1.83-0.54,3.65-1.02,5.38
	c-0.7,5.58-1.26,10.96-0.49,16.57c0.31,0.25,0.07,0.73,0.26,1.01c0.18,2.62,0.36,5.19,0.43,7.81c0.02,0,0.05,0,0.07,0
	c0.04-0.15,0.24-0.4-0.02-0.48c0-0.06,0.01-0.11,0.08-0.17c0.38,0.26,0.04-0.11,0.31-0.25c0.15,0.02,0.23,0.21,0.28,0.34
	c-0.27,0.36-0.31,0.82-0.54,1.22c-0.32-0.23-0.19,0.26-0.21,0.35c0.2,0.01,0.16-0.31,0.38-0.34c0.22,0.12,0.23,0.4,0.35,0.61
	c-0.1,0.2-0.46,0.52-0.1,0.7c-0.33,0.32,0.02,0.6-0.07,1c-0.05,0.33,0.46,0.65,0.05,0.89c-0.03,0.16,0.01,0.31,0.08,0.45
	c0.22,0.05,0.17-0.22,0.33-0.28c0.24-1.18,0.38-2.34,0.51-3.52c0.25-0.7,0.2-1.37,0.15-2.11c0.31-0.99-0.17-1.99,0.03-3.02
	c0.02-0.07-0.02-0.11-0.05-0.15c0.22-1.46-0.93-2.56-0.4-4.02c-0.51-1.85,0.05-4.12-0.37-6.02c0.58-2.73,0.26-5.87,0.67-8.68
	c0.8-3.22,1.18-6.65,2.25-9.75c0.07,0.02,0.19-0.03,0.22,0.08c0.64,1.78,1.38,3.54,1.44,5.52c0.25,0.27,0.07,0.56,0.12,0.91
	c0.28-0.03-0.02-0.46,0.28-0.62c0.07-0.01,0.13,0,0.17,0.06c0.24,0.12-0.03,0.2-0.1,0.24c0.08,0.28-0.11,0.57,0.14,0.77
	c0.09-0.31,0.47-0.71,0.16-1c-0.03-0.09,0.04-0.13,0.1-0.2c0.3-0.03,0.25-0.36,0.32-0.58c-0.07-1.26,0.07-2.61-0.33-3.76
	c-0.01-0.13,0.03-0.3,0.18-0.29c0.15,0.08,0.25,0.23,0.26,0.38c0.72,0.56,0.86,1.4,1.26,2.12c0.12,0.15-0.05,0.44,0.14,0.6
	c0.29,0.06,0.7,0.08,0.9-0.17c0.61-1.48-0.57-2.64-1.24-3.81c-0.03-0.19-0.27-0.38-0.07-0.58c0.82,0.46,1.34,1.51,2.17,2.08
	c0.67,0.65,0.68,1.67,1.56,2.09C157.98,33.77,157.73,33.02,157.73,32.43"/>
<path class="st3" d="M140.29,20.59c-0.14-0.21-0.5-0.18-0.54-0.4c-0.15-0.34-0.62-0.56-1.02-0.48c-0.21,0.33-0.16,0.63-0.24,0.93
	c0.38,0.24,0.75,0.6,1.1,0.85C139.83,21.15,140.14,20.93,140.29,20.59 M140.3,53.76c0.02,0.37-0.08,0.8,0.03,1.13
	c0.04-0.04,0.08-0.07,0.1-0.11C140.35,54.43,140.53,54.03,140.3,53.76 M140.76,20.97c-0.02,0.04-0.04,0.08-0.08,0.1
	c-0.07,0.48-0.2,0.89-0.22,1.39c0.66,0.8,1.2,1.76,1.11,2.88c-0.19,0.16-0.41,0.02-0.58,0.19c-0.58,0.11-0.46-0.68-0.69-1.03
	c-0.05-0.02-0.1-0.06-0.16-0.04c-0.14,0.35-0.18,0.75-0.32,1.08c-0.65,4.71-0.81,9.28-0.63,14.24c0.07,1.23,0.32,2.37,0.64,3.49
	c0.13,2.62,0.49,5.19,0.47,7.83c0.03,0.09,0.09,0,0.13-0.01c0.04-0.2,0.14-0.4-0.04-0.58c0.08-0.15,0.24,0.03,0.33-0.02
	c-0.09-0.06-0.1-0.24,0.01-0.3c0.13-0.01,0.24,0.14,0.29,0.25c-0.18,0.42-0.27,0.88-0.51,1.28c-0.08,0.07-0.18-0.17-0.2-0.01
	c-0.07,0.33,0.02,1.02,0.16,0.27c0.04-0.18,0.31-0.32,0.39-0.04c0.49,0.35-0.25,0.73,0.08,1.06c0.03,0.17-0.1,0.25-0.14,0.37
	c0.06,0.5,0.15,0.97,0.28,1.44c-0.02,0.15-0.26,0.1-0.18,0.31c0.03,0.11,0,0.54,0.21,0.31c0.58-1.19,0.57-2.58,0.71-3.93
	c0.44-0.88-0.04-1.95,0.31-2.88c-0.23-0.73-0.15-1.56-0.23-2.34c0.22-1.5-0.93-2.59-0.45-4.06c-0.49-1.87-0.01-4.08-0.39-5.99
	c0.39-2.6,0.31-5.35,0.39-7.57c-0.09-0.1-0.05-0.11-0.16-0.17c0.08-0.03,0.08-0.16,0.18-0.22c0-0.46-0.58,0.04-0.86-0.23
	c-0.06-0.34-0.01-0.74,0.33-0.86c-0.13-0.66,0.6-0.72,0.88-0.97c0.39-1.14,0.47-2.36,0.72-3.56c0.02-0.13-0.01-0.17-0.02-0.28
	C141.98,21.87,141.34,21.36,140.76,20.97 M151.66,19.6c-1.25-1.9-2.78-3.86-4.6-5.37c-0.38-0.27-1.11-0.15-1.2-0.75
	c0.68-0.33,1.59-0.3,2.29-0.68c0.49-0.15,1.24,0.08,1.71-0.11c0.6-0.02,1.03,0.37,1.55,0.24c0.23-0.77-0.73-0.78-1.13-1.13
	c-2.57-0.65-5.55-0.32-7.67,0.9c-0.67-0.08-1.4-0.2-1.99-0.27c-2.13-0.26-4.18,0.26-5.78,1.47c-0.11,0.57-0.84,0.82-0.59,1.52
	c0.19,0.01,0.46,0.15,0.59,0.02c0.48,0.02,0.06,0.32-0.07,0.46c1.06,0,1.85-0.9,2.96-0.9c0.25,0.23-0.09,0.48-0.1,0.66
	c-0.5,0.34-0.83,1.15-1.28,1.53c0,0.17,0.16,0.04,0.38,0.16c0.78-0.14,1.01,0.66,1.75,0.36c0.2-0.48,0.84-0.74,1.26-0.93
	c0.17,0.58-0.38,0.93-0.38,1.49c1.2,0.77,2.39,1.86,3.41,2.87c0.37-1.1,0.49-2.32,0.96-3.38c0.06,0,0.08-0.05,0.15-0.03
	c0.45,0.83,0.72,1.71,1.08,2.58c0.12,0.99,0.69,1.97,0.53,3.02c0.31,0.23,0,0.58,0.14,0.88c0.23-0.09-0.04-0.5,0.24-0.62
	c0.07,0,0.17-0.01,0.2,0.06c0.2,0.14-0.1,0.16-0.14,0.24c0.14,0.27-0.15,0.61,0.18,0.77c0.14-0.25,0.19-0.57,0.33-0.82
	c-0.01-0.13-0.36-0.24-0.08-0.39c0.26,0.01,0.27-0.32,0.31-0.53c-0.11-1.17,0.14-2.48-0.32-3.52c0.01-0.17-0.13-0.58,0.17-0.53
	c0.65,0.64,1.1,1.52,1.48,2.35c0.12,0.21-0.02,0.54,0.22,0.67c0.31,0.1,0.63,0.02,0.88-0.17c0.74-1.66-0.88-2.85-1.43-4.24
	c0.14-0.29,0.27,0.1,0.42,0.11c0.76,1.16,2.39,1.77,2.73,3.23c0.19,0.27,0.4,0.63,0.76,0.6C151.84,20.87,151.68,20.17,151.66,19.6"
	/>
<path d="M74.53,56.49c-0.99-0.37-1.21-0.55-1.21-1.02c0-0.45,0.33-0.78,0.77-0.78c0.43,0,0.7,0.21,0.9,0.7l0.57-0.26
	c-0.26-0.67-0.73-1.02-1.44-1.02c-0.87,0-1.46,0.58-1.46,1.43c0,0.38,0.11,0.68,0.34,0.93c0.19,0.22,0.34,0.29,0.95,0.52
	c0.58,0.21,0.79,0.31,0.92,0.43c0.16,0.15,0.25,0.38,0.25,0.63c0,0.54-0.41,0.93-0.98,0.93c-0.56,0-0.88-0.33-1.03-1.01l-0.6,0.27
	c0.18,0.84,0.77,1.33,1.6,1.33c0.98,0,1.68-0.66,1.68-1.58c0-0.4-0.12-0.74-0.36-1C75.25,56.78,75.13,56.71,74.53,56.49 M67.87,57.3
	l0.81-1.96l0.81,1.96H67.87z M66.32,59.42h0.71l0.65-1.61h2.02l0.65,1.61h0.7l-2.33-5.54L66.32,59.42z M62.81,57.33h1.49
	C64.18,58.39,63.49,59,62.4,59c-1.17,0-1.99-0.89-1.99-2.19c0-1.23,0.85-2.14,1.99-2.14c0.67,0,1.23,0.33,1.71,1l0.49-0.47
	l-0.06-0.07c-0.62-0.74-1.2-1.01-2.12-1.01c-1.62,0-2.68,1.09-2.68,2.75c0,1.61,1.06,2.66,2.66,2.66c1.51,0,2.56-0.96,2.56-2.34
	v-0.4h-2.15V57.33z M55.23,59.42H58v-0.53h-2.13v-2.03H58v-0.52h-2.13v-1.54H58v-0.53h-2.78V59.42z M51.34,58.22l-1.47-3.97h-0.71
	l2.17,5.51l2.15-5.51h-0.68L51.34,58.22z M43.43,56.49c-0.99-0.37-1.21-0.55-1.21-1.02c0-0.45,0.33-0.78,0.77-0.78
	c0.43,0,0.7,0.21,0.9,0.7l0.57-0.26c-0.26-0.67-0.73-1.02-1.44-1.02c-0.87,0-1.46,0.58-1.46,1.43c0,0.38,0.11,0.68,0.34,0.93
	c0.19,0.22,0.34,0.29,0.95,0.52c0.58,0.21,0.79,0.31,0.92,0.43c0.16,0.15,0.25,0.38,0.25,0.63c0,0.54-0.41,0.93-0.98,0.93
	c-0.56,0-0.88-0.33-1.03-1.01l-0.6,0.27c0.18,0.84,0.77,1.33,1.6,1.33c0.98,0,1.67-0.66,1.67-1.58c0-0.4-0.12-0.74-0.36-1
	C44.15,56.78,44.03,56.71,43.43,56.49 M36.77,57.3l0.81-1.96l0.81,1.96H36.77z M35.22,59.42h0.71l0.65-1.61h2.02l0.65,1.61h0.7
	l-2.33-5.54L35.22,59.42z M31.71,54.25h-0.64v5.16h2.49v-0.53h-1.85V54.25z M82.76,43.29c0.55-0.54,1.13-0.89,1.78-1.1
	c-0.04,0.94-0.85,1.73-1.64,2.08C82.5,44.08,82.55,43.58,82.76,43.29 M81.58,46.39c1.12,0.3,2.28-0.27,3.01-1.27
	c0.21,0.25,0.61,0.62,0.82,0.87c0.72,0.11,1.55,0.12,2.17-0.23c0.55-0.36,1.34-1,0.84-1.76c-0.47-0.36-0.9,0.06-1.37,0.13
	c-2.24,0.31-0.27-1.81-0.88-2.75c-0.25-0.83-1.11-0.99-1.87-0.99c-1.63,0.53-3.41,2.07-3.75,3.8C80.69,45,80.72,45.98,81.58,46.39
	 M80.64,42.62c0.4-0.32,0.98-0.68,0.66-1.22c-1.61-1.86-3.97-0.25-5.67,0.35c-0.69,0.17-0.21-0.98-0.75-1.27
	c-0.36-0.47-0.9-0.26-1.23,0.06c-0.4,0.5-0.48,1.19-0.34,1.84c-0.3,0.39-0.66,0.61-0.95,1c-0.61,0.18-1.13,1.33-1.74,0.71
	c-0.25-0.65-0.1-1.56,0.13-2.13c0.14-0.63-0.24-1.05-0.24-1.05c-0.18-0.4-0.61-0.55-1.04-0.51c-1.02,0.53-1.03,1.87-1.11,2.95
	c-0.08,1.23,0.74,2.14,1.53,2.94c1.55,0.23,2.46-0.7,3.52-1.63c0.1,0.43,0.32,0.83,0.38,1.3c0.21,0.51,0.68,1.02,1.3,0.77
	c0.51-0.79,1.03-1.98,0.35-2.85c1.05-0.82,2.25-1.21,3.45-1.59C79.45,42.43,79.99,42.83,80.64,42.62 M98.61,48.99v-0.56h0.37
	c0.19,0,0.39,0.04,0.39,0.26c0,0.28-0.2,0.29-0.44,0.29H98.61z M99.66,48.72c0-0.35-0.21-0.51-0.63-0.51h-0.68V50h0.27v-0.78h0.31
	L99.4,50h0.3l-0.51-0.79C99.46,49.18,99.66,49.04,99.66,48.72 M69.82,36.42c0.32-0.03,0.4-0.39,0.62-0.57
	c0.04-0.33-0.1-0.8-0.06-0.8c-0.5-0.4-1.08-0.41-1.7-0.2c-0.11,0.32-0.37,0.61-0.19,1.01C68.77,36.42,69.28,36.45,69.82,36.42
	 M103.39,42.96c-0.21-0.61,0.48-1.01,0.73-1.51c0.58-0.14,0.97,0.26,1.3,0.55c-0.18,0.33,0.79,0.8-0.08,0.76
	C104.66,42.76,104.11,43.04,103.39,42.96 M93.78,56.21c-0.26,0.72-0.77,1.37-1.07,2.12c-0.69,0.61-1.24,1.22-2,1.68
	c-2.07,0.92-4.96,1.76-7.12,0.44c-1.47-1.28-1.89-3.37-2.27-5.29c0.14-1.42,2.3-3.28,3.68-4.19c1.27-0.17,2.26-1.25,3.38-1.78
	c1.78-0.64,3.44-1.56,5.36-1.83C94.04,50.36,94.45,53.22,93.78,56.21 M91.86,43.84c-0.29,0.1-1.44,0.13-0.82-0.55
	c0.4-0.68,0.91-1.19,1.63-1.36c0.15,0.07,0.36,0,0.47,0.22C92.7,42.69,92.69,43.59,91.86,43.84 M111.35,44.77
	c-0.25-0.4-0.65-0.44-1.01-0.59c-1.99,0.38-4.06,1.12-6.18,0.52c1.38-0.35,2.75-0.73,4.02-1.37c0-0.11,0.11-0.14,0.08-0.29
	c-0.03-0.87-1.04-1.17-1.61-1.57c-0.06-0.87-1.04-1.24-1.76-1.42c-0.93-0.37-1.7,0.24-2.39,0.66c-0.62,0.86-1.17,1.83-1.15,2.88
	c-1.88,0.78-3.98,0.98-5.97,1.5c-0.07-0.11-0.22-0.15-0.22-0.25c-0.89-1.34,0.49-2.42,0.25-3.79c-0.5-0.69-1.3,0.39-1.62-0.52
	c-0.65-0.44-1.48-0.34-2.17-0.09c-1.31,0.67-2.47,1.78-2.56,3.37c-0.08,0.72,0.53,1.38,1.1,1.89c1.22,0.59,2.24-0.41,3.11-0.88
	c-0.04,0.25,0.07,0.47,0.14,0.69c-0.69,0.35-1.42,0.64-2.17,0.77c-4.02,1.66-8.59,2.96-11.22,7.05c-0.99,2.01-0.29,4.47,0.63,6.33
	c0.88,2.1,3.08,2.99,5.14,3.22c3.43,0.07,6.8-1.06,8.52-4.22c2.41-3.3,1.3-8.15,1.15-12.02c2.17-0.52,4.38-0.97,6.51-1.5
	c1.43,1.64,3.92,1.55,5.91,1.14c0.98-0.03,1.74-0.71,2.78-0.34C111.24,45.85,111.49,45.31,111.35,44.77 M98.94,50.4
	c-0.71,0-1.27-0.55-1.27-1.3c0-0.74,0.56-1.29,1.27-1.29c0.7,0,1.26,0.56,1.26,1.29C100.2,49.85,99.64,50.4,98.94,50.4 M98.94,47.55
	c-0.86,0-1.58,0.66-1.58,1.55c0,0.9,0.73,1.56,1.58,1.56c0.85,0,1.57-0.66,1.57-1.56C100.51,48.21,99.79,47.55,98.94,47.55
	 M64.43,45.48c0.9,0.37,1.69,1.06,2.85,0.78c0.87-0.1,0.88-1.44,0.27-1.88c-2.49,0.05-2.72-2.77-3.61-4.36
	c-0.39-1.02-1.47-1.21-2.45-1c-2.65,0.92-4.83,3.06-7.37,4.27c-0.69,0.36-1.41-0.01-1.91-0.45c-0.6-1.49,0-3.9-2.09-4.39
	c-4.69-0.08-7.94,3.72-11.83,5.82c-0.4,0.1-0.76,0.61-1.16,0.31c0.23-1.59,1-3.1,1.92-4.46c1.26-3.67,4.14-7.04,3.17-11.24
	c-0.85-1.71-2.73-2.08-4.49-2.24c-12.43,1.01-22.82,7.13-32.95,13.94c-0.29,0.25-0.79,0.03-1.16,0.21C2.67,41.11,1.26,41.24,1,42.43
	c0.35,1.05,1.47,1.03,2.41,1.07c2.35-0.74,4.39-2.24,6.57-3.37c1.27-0.71,1.97-1.9,3.24-2.5c2.03-0.7,3.77-2.13,5.59-3.27
	c1.49-0.96,3.11-0.95,4.57-1.91c2.65-1.31,5.54-2.05,8.3-3.07c2.78-0.01,5.43-1.25,8.13-0.11c0.53,0.83,0.59,2.21,0.15,3.11
	c-1.25,2.84-2.47,5.72-3.83,8.49c-0.67,1.62-1.44,3.2-1.42,5.12c0.5,0.76,1.25,1.31,2.27,1.07c2.36-1.03,4.86-1.98,6.75-3.91
	c1.74-0.92,3.42-2.32,5.4-2.48c1.04,1.42,0.91,3.44,2.63,4.47c2.81,1.32,5.1-1,7.28-2.43c1.01-0.42,1.75-1.28,2.9-1.45
	C63.12,42.51,63.18,44.28,64.43,45.48"/>
<path class="st4" d="M160.11,27.7c0.07-0.05,0.12-0.12,0.14-0.2C160.2,27.52,160.08,27.59,160.11,27.7 M161.72,61.52
	c0.2,0.03,0.01-0.17,0.1-0.28C161.67,61.15,161.68,61.44,161.72,61.52 M161.93,59.12c0.06-0.11,0.07-0.35-0.1-0.38
	c-0.06,0.02-0.02,0.09-0.02,0.13C161.8,58.96,161.74,59.18,161.93,59.12 M161.75,60.41c0.76-0.05-0.26-0.44,0.21-0.72
	c0-0.11-0.09-0.17-0.18-0.17C161.72,59.79,161.71,60.13,161.75,60.41 M175.58,25.83c0.11-0.98-1.01-1.3-1.34-2.05
	c-1.75-1.53-3.48-3.4-5.9-3.25c-0.45,0.02-0.33-0.64-0.81-0.59c-1.21-1.06-2.57-1.8-4.12-2.11c-0.91-0.13-1.86-0.47-2.7-0.34
	c-0.19,0.07-0.53-0.13-0.54,0.22c-0.3-0.44-1.03-0.24-1.49-0.5c-0.13,0-0.25,0.1-0.25,0.23c0.05,0.67,0.74,0.62,1.17,0.91
	c0.85,0.14,1.77,0.3,2.51,0.76c0.38,0.42,1.22,0.12,1.38,0.74c-0.44,0.32-1.21,0.18-1.65,0.09c-1.18,0.31-2.3,0.92-3.35,1.51
	c0.03,0.21,0.19,0.38,0.22,0.6c-0.23,0.1-0.48-0.17-0.62-0.32c-0.87-0.03,0.2,0.58-0.07,0.91c-0.09,0.03-0.12-0.11-0.2-0.12
	c-0.17,0.01-0.21,0.07-0.25,0.23c-0.42,0.41-0.84,0.75-1.3,1.16c-0.11-0.02-0.21,0.12-0.08,0.18c1.45-0.15,2.51-1.3,3.97-1.53
	c0.69-0.52,1.63-0.45,2.43-0.55c-0.32,0.79-0.96,1.52-1.49,2.25c-0.07,0.39-0.69,0.76-0.34,1.1c-0.08,0.61-0.2,1.38-0.34,1.79
	c0.11-0.03,0.2-0.4,0.32-0.12c0.6-0.72,1.31-1.38,2.13-1.87c0.25,0.29-0.2,0.49-0.16,0.81c-0.39,0.56-0.58,1.24-0.86,1.86
	c-0.21,0.16,0.1,0.43-0.15,0.57c-0.02,0.18-0.14,0.31,0,0.42c0.24-0.03,0.34-0.14,0.55-0.35c0.11-0.01,0.18,0.04,0.24,0.12
	c0.46,0.61-0.65,0.61-0.25,1.2c-0.06,0.48,0.22-0.01,0.42,0.15c0.28-1.2,0.87-2.23,1.65-3.19c0.04,0,0.07,0,0.11,0
	c0.3,0.29-0.04,0.69-0.15,1c-0.09,1.54-0.46,3.08-0.5,4.66c-0.47,1.69,0.01,3.34-0.22,5.17c0.28,0.51-0.06,1.13,0.22,1.64
	c-0.26,0.49,0.15,1.04-0.16,1.48c0.14,0.34,0.01,0.74-0.06,1.09c-0.12,0.4,0.2,0.77-0.07,1.09c-0.04,1.76-0.24,3.61-0.59,5.3
	c0.16,0.3,0,0.67-0.25,0.84c-0.14,0.92-0.12,1.85-0.41,2.73c-0.12,1.98-0.27,4.11-0.4,6.16c-0.02,0.11-0.01,0.19,0.05,0.26
	c0.11-0.09,0.51-0.28,0.29-0.45c-0.4-0.25,0.18-0.29,0.15-0.5c0.1,0.3,0.15,0.6,0.19,0.91c-0.06,0.09-0.01,0.32-0.19,0.25
	c-0.28,0.62,0.42,1.11,0.2,1.71c-0.07,0.26,0.16,0.82-0.27,0.86c-0.1,0.18,0.01,0.39,0.15,0.51c-0.29,0.3,0.11,0.58,0,0.93
	c-0.08,0.2-0.24,0.03-0.39,0.12c-0.16,0.38,0.4,0.31,0.54,0.56c-0.03,0.28-0.22,0.57-0.41,0.65c-0.04,0.2-0.15,0.61,0.2,0.55
	c0.14,0.3,0.16,0.67-0.09,0.92c0.29,0.25,0.09,0.6,0.1,0.88c0.13-0.61,0.65-1.04,0.53-1.74c0.51-0.74,0.34-1.68,0.66-2.52
	c0.41-2.55,0.77-5.07,0.93-7.65c0.2-0.34,0.07-0.87,0.17-1.26c0.43-2.79,1.05-5.47,1.13-8.42c0.38-2.97-0.01-6.03-0.02-8.98
	c0.21-3.37,0.38-6.78,1.84-9.58c0.04-0.13,0.28-0.44,0.4-0.19c-0.05,0.48,0.67,0.6,0.54,1.11c0.64,0.95,1.01,1.98,1.02,3.15
	c-0.02,0.18,0.44,0.29,0.11,0.47c0.03,0.24-0.24,0.49-0.02,0.71c0.33,0.2,0.65-0.05,0.95-0.14c0.02-0.2,0.09-0.38,0.22-0.53
	c0.72-1.55-0.27-2.98-0.38-4.45c0.06-0.03,0.08-0.14,0.17-0.1c0.87,0.74,1.48,1.68,1.74,2.7c0.15,0,0.32,0.01,0.46,0.01
	c0.23-0.05,0.45-0.15,0.48-0.41c0.02-1.76-1.21-3.07-2.45-4.26c-0.67-0.38-1.28-1.01-2.08-1.04c-0.13-0.1-0.38-0.2-0.34-0.42
	c0.04-0.11,0.1-0.29,0.27-0.25c0.8-0.01,1.5,0.2,2.19,0.45c0.48,0.02,0.32,0.77,0.87,0.63c1.41,0.99,2.77,2.28,4.09,3.44
	c0.09-0.07,0.3-0.07,0.29-0.25C175.89,26.34,175.89,25.92,175.58,25.83"/>
</svg>
