<svg xmlns="http://www.w3.org/2000/svg" xmlns:xlink="http://www.w3.org/1999/xlink" version="1.1" x="0px" y="0px" 
viewBox="0 0 48 60" enable-background="new 0 0 48 48" xml:space="preserve"><g><g>
<path d="M24,47.5C11,47.5,0.5,37,0.5,24S11,0.5,24,0.5S47.5,11,47.5,24S37,47.5,24,47.5z M24,4.4C13.2,4.4,4.4,13.2,4.4,24    
S13.2,43.6,24,43.6S43.6,34.8,43.6,24S34.8,4.4,24,4.4z"/></g><g><g>
<path d="M31.3,15.9c1.3,1.1,1.9,2.8,1.9,5.1c0,2.3-0.7,3.9-2,5c-1.3,1.1-3.4,1.6-6.1,1.6h-2.5v6.2c0,1.1-0.9,2.1-2.1,2.1h0     
c-1.1,0-2.1-0.9-2.1-2.1V16.1c0-1.1,0.9-1.9,1.9-1.9h4.6C28,14.2,30.1,14.8,31.3,15.9z M28.3,23.1c0.5-0.6,0.7-1.4,0.7-2.4     
s-0.3-1.8-1-2.3c-0.6-0.4-1.6-0.7-3-0.7h-2.4V24h2.8C26.9,24,27.8,23.7,28.3,23.1z"/></g></g></g></svg>