<svg xmlns="http://www.w3.org/2000/svg" xmlns:xlink="http://www.w3.org/1999/xlink" version="1.1" x="0px" y="0px" 
viewBox="0 0 48 60" enable-background="new 0 0 48 48" xml:space="preserve"><g><g>
<path d="M14,47.5c-3.6,0-7-1.4-9.5-3.9c-5.3-5.3-5.3-13.8,0-19.1C7,22,10.4,20.6,14,20.6s7,1.4,9.5,3.9c5.3,5.3,5.3,13.8,0,19.1    
C21,46.1,17.6,47.5,14,47.5z M14,24.5c-2.6,0-5,1-6.8,2.8c-3.7,3.7-3.7,9.8,0,13.5c1.8,1.8,4.2,2.8,6.8,2.8s5-1,6.8-2.8    
c3.7-3.7,3.7-9.8,0-13.5C18.9,25.5,16.5,24.5,14,24.5z"/></g><g>
<path d="M25.3,31.7c-0.5,0-1-0.2-1.4-0.6c-0.8-0.8-0.8-2,0-2.8L43.5,8.9l-0.6-3.8l-3.7-0.5l0.5,3.7c0.1,0.6-0.1,1.2-0.5,1.6    
c-0.4,0.4-1,0.7-1.5,0.6l-2.8-0.1l0.3,2.4c0.1,0.6-0.1,1.2-0.5,1.6c-0.4,0.4-0.9,0.7-1.5,0.6l-2.8-0.1l0.3,2.4    
c0.1,0.6-0.1,1.2-0.5,1.6s-1,0.7-1.5,0.6l-4.3-0.2l-4.8,4.8c-0.8,0.8-2,0.8-2.8,0s-0.8-2,0-2.8l5.4-5.4c0.4-0.4,0.9-0.6,1.5-0.6    
l2.8,0.1L26.2,13c-0.1-0.6,0.1-1.2,0.5-1.6c0.4-0.4,1-0.7,1.5-0.6l2.8,0.1l-0.3-2.4C30.6,8,30.8,7.4,31.2,7    
c0.4-0.4,0.9-0.7,1.5-0.6l2.8,0.1l-0.3-2.4c-0.1-0.6,0.1-1.2,0.6-1.7l1.3-1.3c0.4-0.4,1.1-0.6,1.7-0.6L45,1.4    
c0.9,0.1,1.5,0.8,1.7,1.7l0.9,6.2c0.1,0.6-0.1,1.2-0.6,1.7L26.7,31.2C26.3,31.5,25.8,31.7,25.3,31.7z"/></g><g>
<path d="M11,39.2c-0.5,0-1-0.2-1.4-0.6l-0.3-0.3c-0.8-0.8-0.8-2,0-2.8s2-0.8,2.8,0l0.3,0.3c0.8,0.8,0.8,2,0,2.8    
C12,39,11.5,39.2,11,39.2z"/></g></g></svg>