<svg xmlns="http://www.w3.org/2000/svg" xmlns:xlink="http://www.w3.org/1999/xlink" version="1.1" x="0px" y="0px" 
viewBox="0 0 48 60" enable-background="new 0 0 48 48" xml:space="preserve"><g><g><g>
<path d="M7,34.2c-1.1,0-2-0.9-2-2V10c0-5.3,3.6-9.5,8-9.5s8,4.3,8,9.5c0,1.1-0.9,2-2,2s-2-0.9-2-2c0-3-1.9-5.6-4.1-5.6S9,7,9,10     
v22.2C9,33.4,8.1,34.2,7,34.2z"/></g><g>
<path d="M33.4,34.2c-1.1,0-2-0.9-2-2V10c0-5.3,3.6-9.5,8-9.5s8,4.3,8,9.5c0,1.1-0.9,2-2,2s-2-0.9-2-2c0-3-1.9-5.6-4.1-5.6     
c-2.2,0-4.1,2.6-4.1,5.6v22.2C35.3,33.4,34.5,34.2,33.4,34.2z"/></g><g>
<path d="M33.4,21H7c-1.1,0-2-0.9-2-2s0.9-2,2-2h26.3c1.1,0,2,0.9,2,2S34.5,21,33.4,21z"/></g></g><g>
<path d="M2.5,38.7c-0.5,0-1-0.2-1.4-0.5c-0.8-0.7-0.8-2-0.1-2.8c2.1-2.2,4.8-3.3,6.9-4.1c10.1-3.6,21.5-2.9,31.3,1.8l0.2,0.1    
c0.8,0.4,1.6,0.8,2.3,0.8c0.1,0,0.3-0.1,0.4-0.3c0.1-0.1,0.1-0.1,0.1-0.1c-0.1-1.1,0.7-2,1.8-2.1c1.1-0.1,2,0.7,2.1,1.8    
c0.1,1.1-0.2,2.2-1,3c-0.8,0.9-2,1.5-3.1,1.6c-1.7,0.1-3.1-0.6-4.3-1.1l-0.2-0.1c-8.8-4.3-19.1-4.9-28.3-1.6    
c-1.7,0.6-3.8,1.5-5.4,3.1C3.5,38.5,3,38.7,2.5,38.7z"/></g><g>
<path d="M2.5,47.5c-0.5,0-1-0.2-1.4-0.5c-0.8-0.7-0.8-2-0.1-2.8c2.1-2.2,4.8-3.3,6.9-4.1c10.1-3.6,21.5-2.9,31.3,1.8l0.2,0.1    
c0.8,0.4,1.6,0.8,2.3,0.8c0.1,0,0.3-0.1,0.4-0.3c0.1-0.1,0.1-0.1,0.1-0.1c-0.1-1.1,0.7-2,1.8-2.1c1.1-0.1,2,0.7,2.1,1.8    
c0.1,1.1-0.2,2.2-1,3c-0.8,0.9-2,1.5-3.1,1.6c-1.7,0.1-3.1-0.6-4.3-1.1l-0.2-0.1c-8.8-4.3-19.1-4.9-28.3-1.6    
c-1.7,0.6-3.8,1.5-5.4,3.1C3.5,47.3,3,47.5,2.5,47.5z"/></g></g></svg>