<svg xmlns="http://www.w3.org/2000/svg" xmlns:xlink="http://www.w3.org/1999/xlink" version="1.1" x="0px" y="0px" 
viewBox="0 0 48 60" enable-background="new 0 0 48 48" xml:space="preserve"><g><g><g>
<path d="M45.5,39.6H15.8c-0.5,0-1-0.2-1.3-0.5L1.1,26.6c-0.8-0.7-0.8-2-0.1-2.8C1.8,23,3,23,3.8,23.7l12.8,12h28.9     
c1.1,0,2,0.9,2,2S46.6,39.6,45.5,39.6z"/></g><g><g>
<path d="M16.8,47.5c-0.5,0-0.9-0.2-1.3-0.5c-0.8-0.7-0.9-2-0.1-2.8l7.2-7.9c0.7-0.8,2-0.9,2.8-0.1c0.8,0.7,0.9,2,0.1,2.8      
l-7.2,7.9C17.8,47.3,17.3,47.5,16.8,47.5z"/></g><g>
<path d="M44.1,47.5c-0.5,0-1.1-0.2-1.4-0.6L35.4,39c-0.7-0.8-0.7-2,0.1-2.8c0.8-0.7,2-0.7,2.8,0.1l7.2,7.9      
c0.7,0.8,0.7,2-0.1,2.8C45,47.3,44.5,47.5,44.1,47.5z"/></g></g></g><g><g>
<path d="M29.6,26.4c-5.2,0-9.4-4.2-9.4-9.4c0-5.2,4.2-9.4,9.4-9.4c5.2,0,9.4,4.2,9.4,9.4C39.1,22.1,34.8,26.4,29.6,26.4z      
M29.6,11.4c-3,0-5.5,2.5-5.5,5.5s2.5,5.5,5.5,5.5s5.5-2.5,5.5-5.5S32.7,11.4,29.6,11.4z"/></g><g><g>
<path d="M29.6,6.2c-1.1,0-2-0.9-2-2V2.5c0-1.1,0.9-2,2-2s2,0.9,2,2v1.8C31.6,5.3,30.7,6.2,29.6,6.2z"/></g><g>
<path d="M29.6,33.3c-1.1,0-2-0.9-2-2v-1.8c0-1.1,0.9-2,2-2s2,0.9,2,2v1.8C31.6,32.5,30.7,33.3,29.6,33.3z"/></g></g><g><g>
<path d="M44.1,18.9h-1.8c-1.1,0-2-0.9-2-2s0.9-2,2-2h1.8c1.1,0,2,0.9,2,2S45.2,18.9,44.1,18.9z"/></g><g>
<path d="M16.9,18.9h-1.8c-1.1,0-2-0.9-2-2s0.9-2,2-2h1.8c1.1,0,2,0.9,2,2S18,18.9,16.9,18.9z"/></g></g><g><g>
<path d="M38.6,9.9c-0.5,0-1-0.2-1.4-0.6c-0.8-0.8-0.8-2,0-2.8l1.3-1.3c0.8-0.8,2-0.8,2.8,0s0.8,2,0,2.8L40,9.3      
C39.6,9.7,39.1,9.9,38.6,9.9z"/></g><g>
<path d="M19.4,29.1c-0.5,0-1-0.2-1.4-0.6c-0.8-0.8-0.8-2,0-2.8l1.3-1.3c0.8-0.8,2-0.8,2.8,0c0.8,0.8,0.8,2,0,2.8l-1.3,1.3      
C20.4,28.9,19.9,29.1,19.4,29.1z"/></g></g><g><g>
<path d="M39.8,29.1c-0.5,0-1-0.2-1.4-0.6l-1.3-1.3c-0.8-0.8-0.8-2,0-2.8c0.8-0.8,2-0.8,2.8,0l1.3,1.3c0.8,0.8,0.8,2,0,2.8      
C40.8,28.9,40.3,29.1,39.8,29.1z"/></g><g>
<path d="M20.7,9.9c-0.5,0-1-0.2-1.4-0.6L18,8.1c-0.8-0.8-0.8-2,0-2.8s2-0.8,2.8,0L22,6.6c0.8,0.8,0.8,2,0,2.8      
C21.7,9.7,21.2,9.9,20.7,9.9z"/></g></g></g></g></svg>