<svg xmlns="http://www.w3.org/2000/svg" xmlns:xlink="http://www.w3.org/1999/xlink" version="1.1" x="0px" y="0px" viewBox="1 -1 100 125" 
style="enable-background:new 1 -1 100 100;" xml:space="preserve"><g>
<path fill="#a42443" d="M65.1,17.8V6.5H35.8v11.3H11.4v6.1h7.3l5.2,67.7h53.3l5.2-67.7h8.3v-6.1H65.1z M59.1,12.5v5.2H41.9v-5.2H59.1z M29.4,85.4   l-4.7-61.6h51.5l-4.8,61.6H29.4z"/>
<rect fill="#a42443" x="47.4" y="32.6" width="6.1" height="44.3"/>
<rect fill="#a42443" x="59.8" y="32.5" transform="matrix(-0.9985 -5.421369e-02 5.421369e-02 -0.9985 122.6497 112.7788)" width="6.1" height="44.4"/>
<rect fill="#a42443" x="15.8" y="51.7" transform="matrix(-5.409003e-02 -0.9985 0.9985 -5.409003e-02 -14.5815 95.6577)" width="44.4" height="6.1"/></g></svg>