<svg xmlns="http://www.w3.org/2000/svg" viewBox="0 0 64 80" x="0px" y="0px">
<path d="M21,64H43a2,2,0,0,0,2-2V37h7.788a2,2,0,0,0,1.962-2.388L49.831,10.2a10.131,10.131,0,0,0-5.383-7.093.856.856,0,0,0-.083-.023,1.036,1.036,0,0,0-.123-.053l-7.6-1.9A1.948,1.948,0,0,0,34.847,0H29.113a2,2,0,0,0-1.487.663,1.966,1.966,0,0,0-.307.476L19.758,3.03a1.036,1.036,0,0,0-.123.053.856.856,0,0,0-.083.023,10.129,10.129,0,0,0-5.382,7.086L9.249,34.62A2,2,0,0,0,11.212,37H19V62A2,2,0,0,0,21,64ZM45,33V5.834a8.135,8.135,0,0,1,2.869,4.753L51.781,30H47a1,1,0,0,0,0,2h5.184l.6,3H45ZM34,44H30V41h2a1,1,0,0,0,1-1V34h1Zm-7-5V28h4V39ZM43,62H35V46a1,1,0,0,0,1-1V34h7Zm0-30H33V29H43ZM43,4.781V27H37.173L40.815,4.235ZM36.691,3.2l2.177.545L35.147,27H33.159ZM34.848,2,31.572,24.069,29.113,2ZM27.236,3.222,29.775,26h-2L25.1,3.756ZM21,4.781l2.142-.536,2.621,21.8A.986.986,0,0,0,25,27H21ZM21,29h4v3H21Zm0,5h4v6a1,1,0,0,0,1,1h2v4a1,1,0,0,0,1,1h4V62H31V48a1,1,0,0,0-2,0V62H21ZM16.132,10.58A8.126,8.126,0,0,1,19,5.834V30H12.22ZM11.211,35.007,11.817,32H19v3Z"/></svg>