<svg xmlns="http://www.w3.org/2000/svg" xmlns:xlink="http://www.w3.org/1999/xlink" version="1.1" x="0px" y="0px" 
viewBox="0 0 24 30" enable-background="new 0 0 24 24" xml:space="preserve"><g><g><path fill="none" stroke="#000000" 
stroke-linecap="round" stroke-linejoin="round" stroke-miterlimit="10" d="M0.746,12.027    
c0-2.672-0.005-5.343,0.001-8.015c0.005-2.174,1.15-3.334,3.298-3.336c5.281-0.005,10.561-0.008,15.842,0.001    
c2.217,0.004,3.371,1.168,3.371,3.37c0.001,5.28-0.001,10.561-0.006,15.841c-0.002,2.289-1.13,3.433-3.401,3.435    
c-5.249,0.006-10.498,0.005-15.747,0.004c-2.166,0-3.343-1.143-3.354-3.286C0.735,17.37,0.746,14.699,0.746,12.027z"/>
<path fill="none" stroke="#000000" stroke-linecap="round" stroke-linejoin="round" stroke-miterlimit="10" d="M21.277,6.229    
c-0.404,0-0.746,0-1.087,0c-0.696,0-1.436,0.065-1.451,0.95c-0.015,0.881,0.7,0.995,1.411,0.988    
c0.368-0.003,0.736-0.001,1.142-0.001c0.02,0.252,0.042,0.403,0.042,0.554c0.002,2.322,0.002,4.644,0.002,7.104    
c-0.542,0-1.033-0.023-1.522,0.006c-0.589,0.035-1.074,0.292-1.085,0.944c-0.012,0.718,0.5,0.951,1.136,0.965    
c0.465,0.011,0.93,0.002,1.38,0.002c0.306,2.387-0.675,3.539-2.915,3.541c-4.276,0.002-8.553,0.009-12.829-0.003    
c-1.878-0.005-2.841-0.977-2.844-2.848C2.651,14.124,2.65,9.816,2.659,5.509c0.004-1.802,0.996-2.795,2.805-2.8    
c4.245-0.011,8.489-0.006,12.734-0.002C20.553,2.71,21.476,3.732,21.277,6.229z"/>
<path fill="none" stroke="#000000" stroke-linecap="round" stroke-linejoin="round" stroke-miterlimit="10" d="M13.883,12.06    
c0.002,2.427-1.959,4.382-4.381,4.368c-2.418-0.014-4.374-1.994-4.355-4.409c0.018-2.352,1.996-4.323,4.347-4.332    
C11.911,7.678,13.881,9.641,13.883,12.06z M9.479,13.707c0.909,0.023,1.689-0.734,1.693-1.644    
c0.004-0.881-0.706-1.601-1.601-1.625c-0.911-0.024-1.635,0.64-1.677,1.536C7.85,12.91,8.558,13.684,9.479,13.707z"/></g>
<line fill="none" stroke="#000000" stroke-linecap="round" stroke-linejoin="round" stroke-miterlimit="10" x1="20.854" y1="6.229" x2="23.258" y2="6.229"/>
<line fill="none" stroke="#000000" stroke-linecap="round" stroke-linejoin="round" stroke-miterlimit="10" x1="20.479" y1="8.166" x2="23.258" y2="8.166"/>
<line fill="none" stroke="#000000" stroke-linecap="round" stroke-linejoin="round" stroke-miterlimit="10" x1="20.766" y1="15.819" x2="23.255" y2="15.819"/>
<line fill="none" stroke="#000000" stroke-linecap="round" stroke-linejoin="round" stroke-miterlimit="10" x1="20.672" y1="17.744" x2="23.172" y2="17.744"/></g></svg>