<svg xmlns="http://www.w3.org/2000/svg" xmlns:xlink="http://www.w3.org/1999/xlink" version="1.1" x="0px" y="0px" 
viewBox="0 0 100 125" enable-background="new 0 0 100 100" xml:space="preserve"><g>
<path fill="none" d="M71.995,42.018c0.131,0.414,0.217,0.831,0.261,1.249l7.97-5.825c1.396-1.025,1.702-2.996,0.681-4.394   
c-0.803-1.099-2.212-1.555-3.502-1.138c-0.317,0.103-0.617,0.257-0.889,0.458l-7.904,5.776   C70.154,38.896,71.425,40.262,71.995,42.018z"/>
<path fill="none" d="M53.226,61.075L35.502,74.033c-0.011,0.009-0.024,0.014-0.033,0.021c-0.228,0.164-0.471,0.313-0.722,0.446   
c-0.075,0.041-0.148,0.074-0.222,0.111c-0.227,0.109-0.46,0.207-0.702,0.291c-0.035,0.011-0.065,0.029-0.097,0.038   
c-0.036,0.014-0.074,0.016-0.11,0.027c-0.238,0.072-0.478,0.128-0.719,0.169c-0.093,0.019-0.185,0.036-0.279,0.048   
c-0.259,0.036-0.52,0.057-0.781,0.059c-0.086,0.001-0.174-0.007-0.26-0.011c-0.196-0.006-0.392-0.022-0.581-0.046   
c-0.104-0.015-0.206-0.025-0.308-0.045c-0.237-0.039-0.47-0.1-0.7-0.169c-0.11-0.032-0.216-0.069-0.325-0.111   
c-0.168-0.06-0.335-0.128-0.499-0.204c-0.118-0.053-0.233-0.109-0.347-0.171c-0.188-0.102-0.374-0.213-0.553-0.337   
c-0.082-0.054-0.159-0.106-0.237-0.165c-0.214-0.162-0.42-0.335-0.616-0.521c-0.037-0.036-0.07-0.074-0.106-0.112   
c-0.196-0.198-0.379-0.409-0.545-0.634c-0.015-0.017-0.03-0.032-0.042-0.048c-0.008-0.011-0.012-0.022-0.02-0.034   
c-0.076-0.1-0.141-0.207-0.21-0.317c-0.046-0.07-0.094-0.14-0.135-0.213c-0.046-0.079-0.087-0.164-0.129-0.246   
c-0.058-0.107-0.115-0.218-0.166-0.328c-0.024-0.056-0.042-0.106-0.065-0.16c-0.061-0.147-0.121-0.296-0.169-0.447   
c-0.004-0.01-0.007-0.02-0.011-0.03c-0.01-0.031-0.016-0.063-0.027-0.096c-0.047-0.159-0.092-0.317-0.128-0.477   
c-0.013-0.057-0.022-0.114-0.033-0.17c-0.028-0.144-0.05-0.285-0.069-0.43c-0.01-0.081-0.016-0.158-0.022-0.237   
c-0.008-0.118-0.019-0.239-0.022-0.361c0-0.099,0.001-0.197,0.002-0.297c0.002-0.102,0.004-0.206,0.013-0.305   
c0.007-0.109,0.02-0.217,0.033-0.323c0.008-0.069,0.011-0.137,0.021-0.201c0.006-0.034,0.014-0.065,0.02-0.096   
c0.016-0.095,0.036-0.185,0.056-0.274c0.025-0.119,0.051-0.237,0.083-0.353c0.017-0.061,0.036-0.114,0.055-0.171   
c0.044-0.146,0.094-0.292,0.148-0.438c0.009-0.02,0.018-0.043,0.026-0.063c0.218-0.543,0.513-1.05,0.869-1.511   
c0.017-0.019,0.036-0.041,0.055-0.061c0.103-0.13,0.21-0.259,0.324-0.379c0.058-0.062,0.118-0.115,0.176-0.172   
c0.082-0.081,0.162-0.162,0.246-0.235c0.099-0.088,0.205-0.168,0.31-0.249c0.046-0.038,0.087-0.076,0.134-0.11l0.065-0.049   
c0.011-0.006,0.022-0.014,0.03-0.021L44.86,51.62L16.066,19.078C8.618,27.245,4.068,38.101,4.068,50   
c0,25.326,20.605,45.933,45.932,45.933c9.89,0,19.052-3.153,26.558-8.491L53.226,61.075z M24.229,32.124l3.055,0.731   
c-0.917,3.83,0.285,6.998,1.557,10.355c1.47,3.879,3.137,8.278,1.361,13.912l-2.998-0.947c1.449-4.593,0.113-8.119-1.303-11.853   
C24.519,40.67,23.089,36.894,24.229,32.124z M25.355,60.146l-3.125-0.314c0.846-8.382-2.294-11.457-5.618-14.714   
c-3.209-3.141-6.527-6.391-5.371-13.851l3.105,0.482c-0.907,5.863,1.463,8.185,4.465,11.123   C22.348,46.336,26.356,50.259,25.355,60.146z"/>
<path fill="none" d="M65.576,40.364L50.248,51.571L54.43,56.3l14.502-10.602c0.525-0.838,0.689-1.832,0.371-2.81   C68.783,41.277,67.102,40.193,65.576,40.364z"/>
<path fill="none" d="M37.773,67.026c0.133,0.415,0.224,0.838,0.267,1.257l13.094-9.573l-4.183-4.727l-12.629,9.234   C35.905,63.915,37.198,65.251,37.773,67.026z"/>
<path fill="none" d="M50,4.068c-11.965,0-22.872,4.603-31.055,12.125l29.212,33.015l26.501-19.378   
c0.543-0.397,1.142-0.705,1.779-0.911c2.586-0.835,5.4,0.08,7.005,2.273c2.045,2.798,1.434,6.738-1.363,8.786L56.522,58.664   
L79.77,84.938C89.65,76.505,95.933,63.977,95.933,50C95.933,24.673,75.328,4.068,50,4.068z"/>
<path fill="none" d="M30.825,65.97c-0.369,0.12-0.694,0.307-0.98,0.535c-0.083,0.066-0.159,0.136-0.236,0.21   
c-0.074,0.072-0.147,0.147-0.214,0.226c-0.059,0.07-0.113,0.144-0.164,0.221c-0.065,0.09-0.129,0.183-0.183,0.284   
c-0.042,0.079-0.08,0.16-0.118,0.245c-0.042,0.097-0.083,0.195-0.118,0.299c-0.031,0.1-0.057,0.202-0.08,0.308   
c-0.02,0.092-0.039,0.185-0.052,0.275c-0.013,0.11-0.016,0.219-0.019,0.327c-0.001,0.102-0.004,0.201,0.004,0.304   
c0.007,0.094,0.025,0.184,0.037,0.278c0.02,0.114,0.044,0.23,0.077,0.344c0.025,0.087,0.057,0.173,0.09,0.258   
c0.04,0.105,0.083,0.211,0.133,0.308c0.051,0.096,0.108,0.189,0.167,0.278c0.051,0.078,0.101,0.154,0.158,0.225   
c0.081,0.103,0.168,0.194,0.258,0.284c0.05,0.049,0.1,0.099,0.154,0.146c0.122,0.101,0.248,0.197,0.385,0.279   
c0.025,0.015,0.048,0.031,0.073,0.047c0.668,0.385,1.466,0.517,2.222,0.37c0.061-0.009,0.12-0.021,0.181-0.037   
c0.116-0.029,0.227-0.071,0.338-0.112c0.096-0.038,0.194-0.081,0.284-0.126c0.089-0.045,0.172-0.099,0.26-0.153   
c1.17-0.749,1.748-2.216,1.3-3.599C34.25,66.345,32.473,65.437,30.825,65.97z"/>
<path d="M50,0C22.43,0,0,22.43,0,50s22.43,50,50,50c27.571,0,50-22.43,50-50S77.571,0,50,0z M4.068,50   
c0-11.899,4.55-22.755,11.998-30.922L44.86,51.62L28.178,63.816c-0.008,0.008-0.02,0.016-0.03,0.021l-0.065,0.049   
c-0.046,0.034-0.087,0.072-0.134,0.11c-0.104,0.081-0.21,0.161-0.31,0.249c-0.084,0.073-0.164,0.154-0.246,0.235   
c-0.059,0.057-0.118,0.11-0.176,0.172c-0.114,0.12-0.221,0.249-0.324,0.379c-0.019,0.02-0.038,0.042-0.055,0.061   
c-0.356,0.461-0.65,0.968-0.869,1.511c-0.008,0.02-0.018,0.043-0.026,0.063c-0.054,0.146-0.104,0.291-0.148,0.438   
c-0.019,0.057-0.038,0.11-0.055,0.171c-0.032,0.115-0.059,0.233-0.083,0.353c-0.02,0.09-0.04,0.18-0.056,0.274   
c-0.005,0.03-0.013,0.062-0.02,0.096c-0.011,0.064-0.013,0.132-0.021,0.201c-0.013,0.106-0.026,0.214-0.033,0.323   
c-0.009,0.099-0.011,0.203-0.013,0.305c-0.001,0.1-0.002,0.198-0.002,0.297c0.004,0.122,0.014,0.243,0.022,0.361   
c0.006,0.079,0.012,0.156,0.022,0.237c0.019,0.145,0.041,0.286,0.069,0.43c0.011,0.056,0.02,0.113,0.033,0.17   
c0.036,0.159,0.081,0.317,0.128,0.477c0.011,0.033,0.017,0.064,0.027,0.096c0.004,0.011,0.007,0.021,0.011,0.03   
c0.049,0.151,0.108,0.3,0.169,0.447c0.022,0.054,0.041,0.104,0.065,0.16c0.05,0.11,0.107,0.221,0.166,0.328   
c0.042,0.082,0.083,0.167,0.129,0.246c0.042,0.073,0.089,0.143,0.135,0.213c0.069,0.11,0.135,0.218,0.21,0.317   
c0.008,0.012,0.012,0.023,0.02,0.034c0.012,0.016,0.028,0.031,0.042,0.048c0.167,0.225,0.349,0.436,0.545,0.634   
c0.036,0.038,0.069,0.076,0.106,0.112c0.196,0.187,0.401,0.359,0.616,0.521c0.078,0.059,0.155,0.111,0.237,0.165   
c0.179,0.124,0.364,0.235,0.553,0.337c0.114,0.062,0.229,0.118,0.347,0.171c0.164,0.076,0.331,0.145,0.499,0.204   
c0.108,0.042,0.214,0.079,0.325,0.111c0.23,0.069,0.463,0.13,0.7,0.169c0.102,0.02,0.204,0.03,0.308,0.045   
c0.189,0.023,0.385,0.04,0.581,0.046c0.086,0.004,0.173,0.012,0.26,0.011c0.261-0.002,0.521-0.022,0.781-0.059   
c0.094-0.012,0.187-0.029,0.279-0.048c0.241-0.041,0.481-0.097,0.719-0.169c0.036-0.012,0.074-0.014,0.11-0.027   
c0.032-0.009,0.063-0.027,0.097-0.038c0.242-0.084,0.475-0.182,0.702-0.291c0.074-0.037,0.147-0.07,0.222-0.111   
c0.25-0.134,0.494-0.282,0.722-0.446c0.009-0.008,0.022-0.013,0.033-0.021l17.724-12.958l23.332,26.366   
C69.052,92.779,59.89,95.933,50,95.933C24.673,95.933,4.068,75.326,4.068,50z M69.303,42.888c0.318,0.979,0.154,1.972-0.371,2.81   
L54.43,56.3l-4.182-4.729l15.329-11.207C67.102,40.193,68.783,41.277,69.303,42.888z M68.611,38.144l7.904-5.776   
c0.271-0.201,0.571-0.355,0.889-0.458c1.29-0.417,2.699,0.04,3.502,1.138c1.021,1.398,0.715,3.369-0.681,4.394l-7.97,5.825   
c-0.044-0.417-0.13-0.834-0.261-1.249C71.425,40.262,70.154,38.896,68.611,38.144z M51.134,58.71L38.04,68.283   
c-0.043-0.419-0.134-0.842-0.267-1.257c-0.575-1.775-1.868-3.111-3.451-3.809l12.629-9.234L51.134,58.71z M33.482,71.592   
c-0.087,0.055-0.171,0.108-0.26,0.153c-0.09,0.045-0.188,0.088-0.284,0.126c-0.111,0.041-0.222,0.083-0.338,0.112   
C32.54,72,32.48,72.012,32.419,72.021c-0.756,0.146-1.554,0.015-2.222-0.37c-0.025-0.016-0.047-0.032-0.073-0.047   
c-0.138-0.082-0.264-0.179-0.385-0.279c-0.054-0.048-0.104-0.098-0.154-0.146c-0.09-0.09-0.177-0.182-0.258-0.284   
c-0.057-0.07-0.106-0.146-0.158-0.225c-0.059-0.089-0.116-0.183-0.167-0.278c-0.049-0.097-0.093-0.202-0.133-0.308   
c-0.033-0.085-0.064-0.171-0.09-0.258c-0.033-0.113-0.057-0.229-0.077-0.344c-0.012-0.095-0.03-0.185-0.037-0.278   
c-0.008-0.103-0.005-0.202-0.004-0.304c0.003-0.108,0.005-0.217,0.019-0.327c0.013-0.091,0.032-0.184,0.052-0.275   
c0.022-0.105,0.049-0.208,0.08-0.308c0.034-0.104,0.075-0.202,0.118-0.299c0.038-0.085,0.075-0.166,0.118-0.245   
c0.054-0.102,0.118-0.194,0.183-0.284c0.051-0.077,0.105-0.15,0.164-0.221c0.067-0.078,0.14-0.153,0.214-0.226   
c0.077-0.074,0.152-0.144,0.236-0.21c0.286-0.229,0.611-0.415,0.98-0.535c1.648-0.533,3.424,0.375,3.958,2.023   
C35.23,69.376,34.653,70.843,33.482,71.592z M79.77,84.938L56.522,58.664l25.557-18.686c2.797-2.048,3.408-5.987,1.363-8.786   
c-1.604-2.194-4.419-3.109-7.005-2.273c-0.638,0.207-1.236,0.514-1.779,0.911L48.157,49.208L18.945,16.193   
C27.128,8.671,38.035,4.068,50,4.068c25.328,0,45.933,20.605,45.933,45.932C95.933,63.977,89.65,76.505,79.77,84.938z"/>
<path d="M27.205,56.175l2.998,0.947c1.775-5.634,0.109-10.033-1.361-13.912c-1.272-3.357-2.474-6.525-1.557-10.355l-3.055-0.731   
c-1.14,4.77,0.29,8.546,1.672,12.198C27.317,48.056,28.653,51.582,27.205,56.175z"/>
<path d="M18.811,42.871c-3.002-2.938-5.372-5.26-4.465-11.123l-3.105-0.482c-1.156,7.46,2.162,10.709,5.371,13.851   
c3.324,3.257,6.464,6.333,5.618,14.714l3.125,0.314C26.356,50.259,22.348,46.336,18.811,42.871z"/></g></svg>