<svg xmlns="http://www.w3.org/2000/svg" data-name="Layer 1" viewBox="0 0 100 125" x="0px" y="0px"><title>spa</title>
<path d="M61.08,49.73H57.54a2,2,0,0,0-4,.4V60.81a1.59,1.59,0,1,1-3.18,0V48.09a2,2,0,0,0-4,0v1.64H38.92a2,2,0,0,0-2,2V76.5a5.51,5.51,0,0,0,5.5,5.5H57.58a5.51,5.51,0,0,0,5.5-5.5V51.73A2,2,0,0,0,61.08,49.73Zm-2,26.77a1.5,1.5,0,0,1-1.5,1.5H42.42a1.5,1.5,0,0,1-1.5-1.5V53.73H46.4v7.08a5.59,5.59,0,0,0,11.18,0V53.73h1.5ZM49.15,43.05a6,6,0,0,0,1.42.16c2.85,0,7.12-1.67,9.48-8.15a2,2,0,0,0-1.43-2.63,5.48,5.48,0,0,1-4.07-5.51A19.41,19.41,0,0,0,53,19.25l0-.06A2,2,0,0,0,49.42,19c-5.47,9.1-7.2,15.9-5.14,20.23A7,7,0,0,0,49.15,43.05Zm1.31-17.72c0,.53.08,1.07.09,1.63a9.46,9.46,0,0,0,5,8.5c-2.21,4.24-5.15,3.76-5.49,3.69l-.17,0a2.85,2.85,0,0,1-2-1.7C47.2,35.94,46.82,32.55,50.46,25.33Z"/></svg>