<svg xmlns="http://www.w3.org/2000/svg" viewBox="0 0 64 80" x="0px" y="0px">
<path fill="#2f52b9" d="M51.73,36.74V19.31a1.74,1.74,0,0,0-.67-1.37L28.56.63a1.74,1.74,0,0,0-2.12,0L3.94,17.94a1.74,1.74,0,0,0-.67,1.37V53.92A1.72,1.72,0,0,0,5,55.65H37.74a13.67,13.67,0,1,0,14-18.91Zm-45,15.45v-32l20.77-16,20.77,16V36.84a13.67,13.67,0,0,0-11.6,13.49,12.73,12.73,0,0,0,.14,1.86ZM50.33,60A9.67,9.67,0,1,1,60,50.33,9.68,9.68,0,0,1,50.33,60Z"/>
<path fill="#2f52b9" d="M52.33,48.33V44a2,2,0,0,0-4,0v4.36H44a2,2,0,0,0,0,4h4.36V56.7a2,2,0,0,0,4,0V52.33H56.7a2,2,0,0,0,0-4Z"/></svg>