<svg xmlns="http://www.w3.org/2000/svg" xmlns:xlink="http://www.w3.org/1999/xlink" version="1.1" x="0px" y="0px" 
viewBox="0 0 48 60" enable-background="new 0 0 48 48" xml:space="preserve"><g><g>
<path d="M45.5,38.6H2.5c-1.1,0-2-0.9-2-2V2.5c0-1.1,0.9-2,2-2h43.1c1.1,0,2,0.9,2,2v34.2C47.5,37.7,46.6,38.6,45.5,38.6z     
M4.4,34.7h39.2V4.4H4.4V34.7z"/></g><g>
<path d="M36.1,47.5C36,47.5,36,47.5,36.1,47.5H12c-0.6,0-1.2-0.3-1.6-0.8c-0.4-0.5-0.4-1.2-0.2-1.8l3.4-8.9c0.3-0.8,1-1.3,1.8-1.3    
h17.3c0.8,0,1.5,0.5,1.8,1.3l3.3,8.7c0.2,0.3,0.2,0.6,0.2,0.9C38,46.6,37.1,47.5,36.1,47.5z M14.8,43.6h18.4l-1.9-5H16.7    
L14.8,43.6z"/></g></g></svg>