<svg xmlns="http://www.w3.org/2000/svg" data-name="Layer 1" viewBox="0 0 512 640" x="0px" y="0px"><title>1</title>
<path d="M273.25,54.58c6.28,0.28,14.67.85,24.49,2.1A310.89,310.89,0,0,1,358.54,71a322.92,322.92,0,0,1,78.9,40.15,331.74,331.74,0,0,1,68.91,64.05c7.51,9.23,7.16,17.05-1.05,25.59q-8.09,8.42-16.18,16.84a13.45,13.45,0,0,1-20.77-1.07c-30.47-38.81-68.16-68.22-114-86.64C244.54,85.87,120.21,119.48,45.85,213.09c-10.67,13.44-14.77,13.63-26.7,1.27-4.7-4.87-9.44-9.71-14.07-14.64a17.84,17.84,0,0,1-.71-23.56c16.71-20.32,52.34-60.7,105.43-86.73,0,0,46.36-22.73,93.36-31.1,7.43-1.32,14.75-2.25,14.75-2.25,3.52-.45,9.48-1.19,17.33-1.67,5.21-.32,11.57-0.53,18.83-0.42Z"/>
<path d="M268.5,456c-3.43,1.21-13,4.06-23.47.21-13.91-5.12-24-20.14-22.43-36.51,1.53-16,13.56-29,29.35-30.95,13.74-1.71,24.62,3.8,31.88,15.34a34.42,34.42,0,0,1-.17,38.73,37.88,37.88,0,0,1-12.82,12.11Z"/>
<path d="M256.25,167.46C329,169.37,386.7,200.18,430.31,258.1c5.34,7.1,4.57,16.1-1.63,22.72s-12.38,13-18.65,19.4c-6.89,7.06-13.26,6.57-18.74-1.65-14.9-22.34-33.81-40.41-57.22-53.61-72.93-41.11-163.92-19-211.89,51.32a47.8,47.8,0,0,1-3.51,5c-4.2,4.73-10.31,5.28-14.78.87-7.35-7.24-14.55-14.66-21.46-22.32-5.61-6.23-5.73-15.05-.57-22,35.08-46.95,80.88-76.89,138.94-87.25,4.16-.74,8.34-1.42,12.54-1.84A181,181,0,0,1,256.25,167.46Z"/>
<path d="M256.95,281.08c41.39,1,75.76,17.83,102.8,49.82,5.78,6.84,5.39,15.79-.89,22.54-6.45,6.94-13.07,13.72-19.72,20.47-5.83,5.92-12.09,5.58-17.2-1.07a97,97,0,0,0-14.79-16c-35-28.95-84.77-24-113.42,11.27-1.28,1.57-2.45,3.23-3.73,4.81-5.24,6.46-11.39,6.82-17.24.87q-9.78-10-19.37-20.1c-6.8-7.24-6.92-16.11-.41-23.68C180.17,298.41,214.51,281.9,256.95,281.08Z"/></svg>